<svg xmlns="http://www.w3.org/2000/svg" xmlns:xlink="http://www.w3.org/1999/xlink">
  <defs>
    <symbol viewBox="0 0 1024 1024" id="suitcase">
      <path d="M950.3 623c-13.8 0-20.7-9.8-25.7-17-5.1-7.3-7.7-10.2-12.7-10.2-5 0-7.5 3-12.7 10.2-5.1 7.2-12 17-25.7 17-13.8 0-20.7-9.8-25.7-17-5.1-7.3-7.7-10.2-12.7-10.2s-7.5 3-12.7 10.2c-5.1 7.2-12 17-25.7 17s-20.7-9.8-25.7-17c-5.1-7.3-7.7-10.2-12.7-10.2-4.4 0-8-3.6-8-8s3.6-8 8-8c13.8 0 20.7 9.8 25.7 17 5.1 7.3 7.7 10.2 12.7 10.2s7.5-3 12.7-10.2c5.1-7.2 12-17 25.7-17s20.7 9.8 25.7 17c5.1 7.3 7.7 10.2 12.7 10.2 5 0 7.5-3 12.7-10.2 5.1-7.2 12-17 25.7-17s20.7 9.8 25.7 17c5.1 7.3 7.7 10.2 12.7 10.2 4.4 0 8 3.6 8 8s-3.6 8-8 8zM950.3 573c-13.8 0-20.7-9.8-25.7-17-5.1-7.3-7.7-10.2-12.7-10.2-5 0-7.5 3-12.7 10.2-5.1 7.2-12 17-25.7 17-13.8 0-20.7-9.8-25.7-17-5.1-7.3-7.7-10.2-12.7-10.2s-7.5 3-12.7 10.2c-5.1 7.2-12 17-25.7 17s-20.7-9.8-25.7-17c-5.1-7.3-7.7-10.2-12.7-10.2-4.4 0-8-3.6-8-8s3.6-8 8-8c13.8 0 20.7 9.8 25.7 17 5.1 7.3 7.7 10.2 12.7 10.2s7.5-3 12.7-10.2c5.1-7.2 12-17 25.7-17s20.7 9.8 25.7 17c5.1 7.3 7.7 10.2 12.7 10.2 5 0 7.5-3 12.7-10.2 5.1-7.2 12-17 25.7-17s20.7 9.8 25.7 17c5.1 7.3 7.7 10.2 12.7 10.2 4.4 0 8 3.6 8 8s-3.6 8-8 8zM241.7 281.3c-12.9 0-19.2-10.1-23.8-17.4-4.3-6.9-6.5-9.9-10.2-9.9s-5.9 3-10.2 9.9c-4.6 7.3-10.9 17.4-23.8 17.4s-19.2-10.1-23.8-17.4c-4.3-6.9-6.5-9.9-10.2-9.9-3.7 0-5.9 3-10.2 9.9-4.6 7.3-10.9 17.4-23.8 17.4s-19.2-10.1-23.8-17.4c-4.3-6.9-6.5-9.9-10.2-9.9-4.4 0-8-3.6-8-8s3.6-8 8-8c12.9 0 19.2 10.1 23.8 17.4 4.3 6.9 6.5 9.9 10.2 9.9 3.7 0 5.9-3 10.2-9.9 4.6-7.3 10.9-17.4 23.8-17.4s19.2 10.1 23.8 17.4c4.3 6.9 6.5 9.9 10.2 9.9 3.7 0 5.9-3 10.2-9.9 4.6-7.3 10.9-17.4 23.8-17.4s19.2 10.1 23.8 17.4c4.3 6.9 6.5 9.9 10.2 9.9 4.4 0 8 3.6 8 8s-3.6 8-8 8zM263.6 231.3c-13.8 0-20.7-9.8-25.7-17-5.1-7.3-7.7-10.2-12.7-10.2s-7.5 3-12.7 10.2c-5.1 7.2-12 17-25.7 17-13.8 0-20.7-9.8-25.7-17-5.1-7.3-7.7-10.2-12.7-10.2-5 0-7.5 3-12.7 10.2-5.1 7.2-12 17-25.7 17-13.8 0-20.7-9.8-25.7-17-5.1-7.3-7.7-10.2-12.7-10.2-4.4 0-8-3.6-8-8s3.6-8 8-8c13.8 0 20.7 9.8 25.7 17 5.1 7.3 7.7 10.2 12.7 10.2 5 0 7.5-3 12.7-10.2 5.1-7.2 12-17 25.7-17 13.8 0 20.7 9.8 25.7 17 5.1 7.3 7.7 10.2 12.7 10.2 5 0 7.5-3 12.7-10.2 5.1-7.2 12-17 25.7-17 13.8 0 20.7 9.8 25.7 17 5.1 7.3 7.7 10.2 12.7 10.2 4.4 0 8 3.6 8 8s-3.6 8-8 8z" fill="#9A2D2F" />
      <path d="M351.7 103.7m-32 0a32 32 0 1 0 64 0 32 32 0 1 0-64 0Z" fill="#FFEB4D" />
      <path d="M351.7 143.7c-22.1 0-40-17.9-40-40s17.9-40 40-40 40 17.9 40 40-18 40-40 40z m0-64c-13.2 0-24 10.8-24 24s10.8 24 24 24 24-10.8 24-24-10.8-24-24-24z" fill="#9A2D2F" />
      <path d="M197.6 886.7c0 17.7 14.3 32 32 32h320c17.7 0 32-14.3 32-32v-288h-384v288z" fill="#DAE5FF" />
      <path d="M550.6 408h-320c-17.7 0-32 14.3-32 32v128h384V440c0-17.7-14.3-32-32-32z" fill="#FFD7F5" />
      <path d="M197.6 564.7h384v32h-384z" fill="#FFFFFF" />
      <path d="M277.6 597.7h230v320h-230z" fill="#FFACC2" />
      <path d="M864.6 727.7v192c0 17.7-14.3 32-32 32h-320c-17.7 0-32-14.3-32-32v-192c0-17.7 14.3-32 32-32h320c17.7 0 32 14.3 32 32z" fill="#FFCD7D" />
      <path d="M549.6 695.7h32v256h-32zM762.6 695.7h32v256h-32zM205.6 436.7v44.1c32.8 9.9 82.2 8.5 148.7-35.4 57.2-37.8 137.7 8.3 174.7-16.3 9.4-6.2 16.1-11.7 21-16.3H229.7c-13.3-0.1-24.1 10.6-24.1 23.9z" fill="#FFFFFF" />
      <path d="M921.6 943.7h-57c5-6.7 8-15 8-24v-192c0-22.1-17.9-40-40-40h-85.9c0-23.2-18.9-42.1-42.1-42.1h-64c-23.2 0-42.1 18.9-42.1 42.1h-8.9v-89c0-0.3 0-0.7-0.1-1 0-0.3 0.1-0.7 0.1-1v-160c0-22.1-17.9-40-40-40h-97V246.5h38c4.9 0 8.9-4 8.9-8.9s-4-8.9-8.9-8.9h-196c-4.9 0-8.9 4-8.9 8.9s4 8.9 8.9 8.9h38v150.1h-103c-22.1 0-40 17.9-40 40v160c0 0.3 0 0.7 0.1 1 0 0.3-0.1 0.7-0.1 1v288c0 22.1 17.9 40 40 40h22.8c-0.9 2.5-1.4 5.3-1.4 8.2 0 3.1 0.6 6.1 1.7 8.9h-155c-4.4 0-8 3.6-8 8s3.6 8 8 8h824c4.4 0 8-3.6 8-8s-3.7-8-8.1-8z m-89-240c13.2 0 24 10.8 24 24v192c0 13.2-10.7 23.9-23.8 24h-30.2v-240h30z m-46 0v240h-16v-240h16z m-167.9-16c0-12.1 9.8-21.9 21.9-21.9h64c12.1 0 21.9 9.8 21.9 21.9H618.7z m135.9 16v240h-165v-240h165z m-242.2 240c-13.1-0.1-23.8-10.8-23.8-24v-192c0-13.2 10.8-24 24-24h29v240h-29.2z m-39.8-216v181.7H286V606.7h213.3V690c-15.5 5.5-26.7 20.3-26.7 37.7z m43.4-40v-81h57.7v81H516z m41.6 256v-240h16v240h-16z m-209-697.2h88v150.1h-88V246.5z m-143 190.2c0-13.2 10.8-24 24-24h320c13.2 0 24 10.8 24 24v120h-368v-120z m0 136h368v16h-368v-16z m77.3 362.1c0 4.4-3.6 8-8 8s-8-3.6-8-8 3.6-8 8-8 8 3.6 8 8z m-53.3-24.1c-13.2 0-24-10.8-24-24v-280h63.7v304h-39.7z m67.9 16h175.7c1.1 6.3 3.7 12.1 7.4 17H297.2c1.1-2.7 1.7-5.7 1.7-8.9 0-2.8-0.5-5.6-1.4-8.1z" fill="#9A2D2F" />
    </symbol>

    <symbol viewBox="0 0 24 24" id="icon-2">
      <path d="M0 0h24v24H0V0zm22.034 18.276c-.175-1.095-.888-2.015-3.003-2.873-.736-.345-1.554-.585-1.797-1.14-.091-.33-.105-.51-.046-.705.15-.646.915-.84 1.515-.66.39.12.75.42.976.9 1.034-.676 1.034-.676 1.755-1.125-.27-.42-.404-.601-.586-.78-.63-.705-1.469-1.065-2.834-1.034l-.705.089c-.676.165-1.32.525-1.71 1.005-1.14 1.291-.811 3.541.569 4.471 1.365 1.02 3.361 1.244 3.616 2.205.24 1.17-.87 1.545-1.966 1.41-.811-.18-1.26-.586-1.755-1.336l-1.83 1.051c.21.48.45.689.81 1.109 1.74 1.756 6.09 1.666 6.871-1.004.029-.09.24-.705.074-1.65l.046.067zm-8.983-7.245h-2.248c0 1.938-.009 3.864-.009 5.805 0 1.232.063 2.363-.138 2.711-.33.689-1.18.601-1.566.48-.396-.196-.597-.466-.83-.855-.063-.105-.11-.196-.127-.196l-1.825 1.125c.305.63.75 1.172 1.324 1.517.855.51 2.004.675 3.207.405.783-.226 1.458-.691 1.811-1.411.51-.93.402-2.07.397-3.346.012-2.054 0-4.109 0-6.179l.004-.056z" />
    </symbol>
  </defs>
</svg>