<svg xmlns="http://www.w3.org/2000/svg" xmlns:xlink="http://www.w3.org/1999/xlink">
  <defs>
    <symbol viewBox="0 0 1024 1024" id="suitcase">
      <path d="M950.3 623c-13.8 0-20.7-9.8-25.7-17-5.1-7.3-7.7-10.2-12.7-10.2-5 0-7.5 3-12.7 10.2-5.1 7.2-12 17-25.7 17-13.8 0-20.7-9.8-25.7-17-5.1-7.3-7.7-10.2-12.7-10.2s-7.5 3-12.7 10.2c-5.1 7.2-12 17-25.7 17s-20.7-9.8-25.7-17c-5.1-7.3-7.7-10.2-12.7-10.2-4.4 0-8-3.6-8-8s3.6-8 8-8c13.8 0 20.7 9.8 25.7 17 5.1 7.3 7.7 10.2 12.7 10.2s7.5-3 12.7-10.2c5.1-7.2 12-17 25.7-17s20.7 9.8 25.7 17c5.1 7.3 7.7 10.2 12.7 10.2 5 0 7.5-3 12.7-10.2 5.1-7.2 12-17 25.7-17s20.7 9.8 25.7 17c5.1 7.3 7.7 10.2 12.7 10.2 4.4 0 8 3.6 8 8s-3.6 8-8 8zM950.3 573c-13.8 0-20.7-9.8-25.7-17-5.1-7.3-7.7-10.2-12.7-10.2-5 0-7.5 3-12.7 10.2-5.1 7.2-12 17-25.7 17-13.8 0-20.7-9.8-25.7-17-5.1-7.3-7.7-10.2-12.7-10.2s-7.5 3-12.7 10.2c-5.1 7.2-12 17-25.7 17s-20.7-9.8-25.7-17c-5.1-7.3-7.7-10.2-12.7-10.2-4.4 0-8-3.6-8-8s3.6-8 8-8c13.8 0 20.7 9.8 25.7 17 5.1 7.3 7.7 10.2 12.7 10.2s7.5-3 12.7-10.2c5.1-7.2 12-17 25.7-17s20.7 9.8 25.7 17c5.1 7.3 7.7 10.2 12.7 10.2 5 0 7.5-3 12.7-10.2 5.1-7.2 12-17 25.7-17s20.7 9.8 25.7 17c5.1 7.3 7.7 10.2 12.7 10.2 4.4 0 8 3.6 8 8s-3.6 8-8 8zM241.7 281.3c-12.9 0-19.2-10.1-23.8-17.4-4.3-6.9-6.5-9.9-10.2-9.9s-5.9 3-10.2 9.9c-4.6 7.3-10.9 17.4-23.8 17.4s-19.2-10.1-23.8-17.4c-4.3-6.9-6.5-9.9-10.2-9.9-3.7 0-5.9 3-10.2 9.9-4.6 7.3-10.9 17.4-23.8 17.4s-19.2-10.1-23.8-17.4c-4.3-6.9-6.5-9.9-10.2-9.9-4.4 0-8-3.6-8-8s3.6-8 8-8c12.9 0 19.2 10.1 23.8 17.4 4.3 6.9 6.5 9.9 10.2 9.9 3.7 0 5.9-3 10.2-9.9 4.6-7.3 10.9-17.4 23.8-17.4s19.2 10.1 23.8 17.4c4.3 6.9 6.5 9.9 10.2 9.9 3.7 0 5.9-3 10.2-9.9 4.6-7.3 10.9-17.4 23.8-17.4s19.2 10.1 23.8 17.4c4.3 6.9 6.5 9.9 10.2 9.9 4.4 0 8 3.6 8 8s-3.6 8-8 8zM263.6 231.3c-13.8 0-20.7-9.8-25.7-17-5.1-7.3-7.7-10.2-12.7-10.2s-7.5 3-12.7 10.2c-5.1 7.2-12 17-25.7 17-13.8 0-20.7-9.8-25.7-17-5.1-7.3-7.7-10.2-12.7-10.2-5 0-7.5 3-12.7 10.2-5.1 7.2-12 17-25.7 17-13.8 0-20.7-9.8-25.7-17-5.1-7.3-7.7-10.2-12.7-10.2-4.4 0-8-3.6-8-8s3.6-8 8-8c13.8 0 20.7 9.8 25.7 17 5.1 7.3 7.7 10.2 12.7 10.2 5 0 7.5-3 12.7-10.2 5.1-7.2 12-17 25.7-17 13.8 0 20.7 9.8 25.7 17 5.1 7.3 7.7 10.2 12.7 10.2 5 0 7.5-3 12.7-10.2 5.1-7.2 12-17 25.7-17 13.8 0 20.7 9.8 25.7 17 5.1 7.3 7.7 10.2 12.7 10.2 4.4 0 8 3.6 8 8s-3.6 8-8 8z" fill="#9A2D2F" />
      <path d="M351.7 103.7m-32 0a32 32 0 1 0 64 0 32 32 0 1 0-64 0Z" fill="#FFEB4D" />
      <path d="M351.7 143.7c-22.1 0-40-17.9-40-40s17.9-40 40-40 40 17.9 40 40-18 40-40 40z m0-64c-13.2 0-24 10.8-24 24s10.8 24 24 24 24-10.8 24-24-10.8-24-24-24z" fill="#9A2D2F" />
      <path d="M197.6 886.7c0 17.7 14.3 32 32 32h320c17.7 0 32-14.3 32-32v-288h-384v288z" fill="#DAE5FF" />
      <path d="M550.6 408h-320c-17.7 0-32 14.3-32 32v128h384V440c0-17.7-14.3-32-32-32z" fill="#FFD7F5" />
      <path d="M197.6 564.7h384v32h-384z" fill="#FFFFFF" />
      <path d="M277.6 597.7h230v320h-230z" fill="#FFACC2" />
      <path d="M864.6 727.7v192c0 17.7-14.3 32-32 32h-320c-17.7 0-32-14.3-32-32v-192c0-17.7 14.3-32 32-32h320c17.7 0 32 14.3 32 32z" fill="#FFCD7D" />
      <path d="M549.6 695.7h32v256h-32zM762.6 695.7h32v256h-32zM205.6 436.7v44.1c32.8 9.9 82.2 8.5 148.7-35.4 57.2-37.8 137.7 8.3 174.7-16.3 9.4-6.2 16.1-11.7 21-16.3H229.7c-13.3-0.1-24.1 10.6-24.1 23.9z" fill="#FFFFFF" />
      <path d="M921.6 943.7h-57c5-6.7 8-15 8-24v-192c0-22.1-17.9-40-40-40h-85.9c0-23.2-18.9-42.1-42.1-42.1h-64c-23.2 0-42.1 18.9-42.1 42.1h-8.9v-89c0-0.3 0-0.7-0.1-1 0-0.3 0.1-0.7 0.1-1v-160c0-22.1-17.9-40-40-40h-97V246.5h38c4.9 0 8.9-4 8.9-8.9s-4-8.9-8.9-8.9h-196c-4.9 0-8.9 4-8.9 8.9s4 8.9 8.9 8.9h38v150.1h-103c-22.1 0-40 17.9-40 40v160c0 0.3 0 0.7 0.1 1 0 0.3-0.1 0.7-0.1 1v288c0 22.1 17.9 40 40 40h22.8c-0.9 2.5-1.4 5.3-1.4 8.2 0 3.1 0.6 6.1 1.7 8.9h-155c-4.4 0-8 3.6-8 8s3.6 8 8 8h824c4.4 0 8-3.6 8-8s-3.7-8-8.1-8z m-89-240c13.2 0 24 10.8 24 24v192c0 13.2-10.7 23.9-23.8 24h-30.2v-240h30z m-46 0v240h-16v-240h16z m-167.9-16c0-12.1 9.8-21.9 21.9-21.9h64c12.1 0 21.9 9.8 21.9 21.9H618.7z m135.9 16v240h-165v-240h165z m-242.2 240c-13.1-0.1-23.8-10.8-23.8-24v-192c0-13.2 10.8-24 24-24h29v240h-29.2z m-39.8-216v181.7H286V606.7h213.3V690c-15.5 5.5-26.7 20.3-26.7 37.7z m43.4-40v-81h57.7v81H516z m41.6 256v-240h16v240h-16z m-209-697.2h88v150.1h-88V246.5z m-143 190.2c0-13.2 10.8-24 24-24h320c13.2 0 24 10.8 24 24v120h-368v-120z m0 136h368v16h-368v-16z m77.3 362.1c0 4.4-3.6 8-8 8s-8-3.6-8-8 3.6-8 8-8 8 3.6 8 8z m-53.3-24.1c-13.2 0-24-10.8-24-24v-280h63.7v304h-39.7z m67.9 16h175.7c1.1 6.3 3.7 12.1 7.4 17H297.2c1.1-2.7 1.7-5.7 1.7-8.9 0-2.8-0.5-5.6-1.4-8.1z" fill="#9A2D2F" />
    </symbol>

    <symbol viewBox="0 0 1024 1024" id="airplane">
      <path d="M200.5 484.7H77.4l-0.9-168h43.8z" fill="#FFEB4D" />
      <path d="M897 652.7H245.5c-92.8 0-168-75.2-168-168h725.6c93.4 0 146.4 51.7 146.4 115.4 0 29-23.5 52.6-52.5 52.6z" fill="#DAE5FF" />
      <path d="M124.4 600.7c30.6 31.8 73.5 51.6 121.2 51.6H897c28.7 0 52-23 52.5-51.6H124.4z" fill="#FFACC2" />
      <path d="M776.5 513.7h32v42h-32z" fill="#FFFFFF" /><path d="M808.5 562.7h-32c-4.4 0-8-3.1-8-7v-42c0-3.9 3.6-7 8-7h32c4.4 0 8 3.1 8 7v42c0 3.8-3.5 7-8 7z m-24-14h16v-28h-16v28z" fill="#9A2D2F" />
      <path d="M214.5 555.7h-20c-3.3 0-6-2.7-6-6v-30c0-3.3 2.7-6 6-6h20c3.3 0 6 2.7 6 6v30c0 3.3-2.6 6-6 6z" fill="#FFFFFF" />
      <path d="M214.5 562.7h-20c-7.7 0-14-5.5-14-12.2V519c0-6.8 6.3-12.2 14-12.2h20c7.7 0 14 5.5 14 12.2v31.5c0 6.7-6.2 12.2-14 12.2z m-18-14h16v-28h-16v28zM731.5 521.7h-4c-3.3 0-6 2.7-6 6v8c0 3.3 2.7 6 6 6h4c3.3 0 6-2.7 6-6v-8c0-3.3-2.6-6-6-6zM700.5 521.7h-4c-3.3 0-6 2.2-6 5v10c0 2.8 2.7 5 6 5h4c3.3 0 6-2.2 6-5v-10c0-2.8-2.6-5-6-5zM669.5 521.7h-4c-3.3 0-6 2.2-6 5v10c0 2.8 2.7 5 6 5h4c3.3 0 6-2.2 6-5v-10c0-2.8-2.6-5-6-5zM638.5 521.7h-4c-3.3 0-6 2.2-6 5v10c0 2.8 2.7 5 6 5h4c3.3 0 6-2.2 6-5v-10c0-2.8-2.6-5-6-5zM607.5 521.7h-4c-3.3 0-6 2.2-6 5v10c0 2.8 2.7 5 6 5h4c3.3 0 6-2.2 6-5v-10c0-2.8-2.6-5-6-5zM577.5 521.7h-4c-3.3 0-6 2.2-6 5v10c0 2.8 2.7 5 6 5h4c3.3 0 6-2.2 6-5v-10c0-2.8-2.6-5-6-5zM546.5 521.7h-4c-3.3 0-6 2.2-6 5v10c0 2.8 2.7 5 6 5h4c3.3 0 6-2.2 6-5v-10c0-2.8-2.6-5-6-5zM515.5 521.7h-4c-3.3 0-6 2.2-6 5v10c0 2.8 2.7 5 6 5h4c3.3 0 6-2.2 6-5v-10c0-2.8-2.6-5-6-5zM298.5 521.7h-4c-3.3 0-6 2.2-6 5v10c0 2.8 2.7 5 6 5h4c3.3 0 6-2.2 6-5v-10c0-2.8-2.6-5-6-5zM267.5 521.7h-4c-3.3 0-6 2.7-6 6v8c0 3.3 2.7 6 6 6h4c3.3 0 6-2.7 6-6v-8c0-3.3-2.6-6-6-6z" fill="#9A2D2F" />
      <path d="M950.5 821.7c-13.8 0-20.7-9.8-25.7-17-5.1-7.3-7.7-10.2-12.7-10.2s-7.5 3-12.7 10.2c-5.1 7.2-12 17-25.7 17-13.8 0-20.7-9.8-25.7-17-5.1-7.3-7.7-10.2-12.7-10.2s-7.5 3-12.7 10.2c-5.1 7.2-12 17-25.7 17-13.8 0-20.7-9.8-25.7-17-5.1-7.3-7.7-10.2-12.7-10.2-4.4 0-8-3.6-8-8s3.6-8 8-8c13.8 0 20.7 9.8 25.7 17 5.1 7.3 7.7 10.2 12.7 10.2 5 0 7.5-3 12.7-10.2 5.1-7.2 12-17 25.7-17s20.7 9.8 25.7 17c5.1 7.3 7.7 10.2 12.7 10.2 5 0 7.5-3 12.7-10.2 5.1-7.2 12-17 25.7-17s20.7 9.8 25.7 17c5.1 7.3 7.7 10.2 12.7 10.2 4.4 0 8 3.6 8 8s-3.5 8-8 8zM950.5 771.7c-13.8 0-20.7-9.8-25.7-17-5.1-7.3-7.7-10.2-12.7-10.2s-7.5 3-12.7 10.2c-5.1 7.2-12 17-25.7 17-13.8 0-20.7-9.8-25.7-17-5.1-7.3-7.7-10.2-12.7-10.2s-7.5 3-12.7 10.2c-5.1 7.2-12 17-25.7 17-13.8 0-20.7-9.8-25.7-17-5.1-7.3-7.7-10.2-12.7-10.2-4.4 0-8-3.6-8-8s3.6-8 8-8c13.8 0 20.7 9.8 25.7 17 5.1 7.3 7.7 10.2 12.7 10.2 5 0 7.5-3 12.7-10.2 5.1-7.2 12-17 25.7-17s20.7 9.8 25.7 17c5.1 7.3 7.7 10.2 12.7 10.2 5 0 7.5-3 12.7-10.2 5.1-7.2 12-17 25.7-17s20.7 9.8 25.7 17c5.1 7.3 7.7 10.2 12.7 10.2 4.4 0 8 3.6 8 8s-3.5 8-8 8zM241.6 259.6c-12.9 0-19.2-10.1-23.8-17.4-4.3-6.9-6.5-9.9-10.2-9.9s-5.9 3-10.2 9.9c-4.6 7.3-10.9 17.4-23.8 17.4s-19.2-10.1-23.8-17.4c-4.3-6.9-6.5-9.9-10.2-9.9s-5.9 3-10.2 9.9c-4.6 7.3-10.9 17.4-23.8 17.4s-19.2-10.1-23.8-17.4c-4.3-6.9-6.5-9.9-10.2-9.9-4.4 0-8-3.6-8-8s3.6-8 8-8c12.9 0 19.2 10.1 23.8 17.4 4.3 6.9 6.5 9.9 10.2 9.9s5.9-3 10.2-9.9c4.6-7.3 10.9-17.4 23.8-17.4s19.2 10.1 23.8 17.4c4.3 6.9 6.5 9.9 10.2 9.9 3.7 0 5.9-3 10.2-9.9 4.6-7.3 10.9-17.4 23.8-17.4s19.2 10.1 23.8 17.4c4.3 6.9 6.5 9.9 10.2 9.9 4.4 0 8 3.6 8 8s-3.6 8-8 8zM263.5 209.6c-13.8 0-20.7-9.8-25.7-17-5.1-7.3-7.7-10.2-12.7-10.2-5 0-7.5 3-12.7 10.2-5.1 7.2-12 17-25.7 17-13.8 0-20.7-9.8-25.7-17-5.1-7.3-7.7-10.2-12.7-10.2s-7.5 3-12.7 10.2c-5.1 7.2-12 17-25.7 17-13.8 0-20.7-9.8-25.7-17-5.1-7.3-7.7-10.2-12.7-10.2-4.4 0-8-3.6-8-8s3.6-8 8-8c13.8 0 20.7 9.8 25.7 17 5.1 7.3 7.7 10.2 12.7 10.2 5 0 7.5-3 12.7-10.2 5.1-7.2 12-17 25.7-17s20.7 9.8 25.7 17c5.1 7.3 7.7 10.2 12.7 10.2 5 0 7.5-3 12.7-10.2 5.1-7.2 12-17 25.7-17s20.7 9.8 25.7 17c5.1 7.3 7.7 10.2 12.7 10.2 4.4 0 8 3.6 8 8s-3.5 8-8 8z" fill="#9A2D2F" />
      <path d="M350.1 82m-32 0a32 32 0 1 0 64 0 32 32 0 1 0-64 0Z" fill="#FFEB4D" />
      <path d="M350.1 122c-22.1 0-40-17.9-40-40s17.9-40 40-40 40 17.9 40 40-17.9 40-40 40z m0-64c-13.2 0-24 10.8-24 24s10.8 24 24 24 24-10.8 24-24-10.7-24-24-24zM926.5 957.7h-824c-4.4 0-8-3.6-8-8s3.6-8 8-8h824c4.4 0 8 3.6 8 8s-3.5 8-8 8z" fill="#9A2D2F" />
      <path d="M233 492.7c4 9.7 20 21.4 47.5 19.2 65.5-5.2 131.9-13.6 204-9.2 136.5 8.2 231.1 1.5 272.6-2 15.8-1.3 48.4-3.5 62.9-7.4-5.5-0.4-11.1-0.6-16.9-0.6H233z" fill="#FFFFFF" />
      <path d="M656.3 652.2H456.4l-194.1-203h56.3z" fill="#FFACC2" />
      <path d="M701.3 684.7h-70c-8.8 0-16-7.2-16-16v-28c0-8.8 7.2-16 16-16h70c8.8 0 16 7.2 16 16v28c0 8.8-7.2 16-16 16z" fill="#CAE8FF" />
      <path d="M916.5 512.4c-27.9-23.3-67.1-35.7-113.4-35.7H379.9l-57.1-34.4c-1.2-0.7-2.7-1.1-4.1-1.1h-56.3c-3.2 0-6.1 1.9-7.4 4.9-1.3 2.9-0.6 6.4 1.6 8.7l21 22h-72.2l-78-163.8c-1.4-2.6-4.1-4.2-7-4.2H76.5c-2.1 0-4.2 0.8-5.7 2.4-1.5 1.5-2.3 3.6-2.3 5.7l0.9 168c0 0.4 0 0.8 0.1 1.2 0.7 96.5 79.4 174.8 176 174.8h361.8v8c0 13.2 10.8 24 24 24h70c13.2 0 24-10.8 24-24v-8H897c33.4 0 60.6-27.2 60.6-60.6-0.1-34.6-14.6-65.8-41.1-87.9z m-113.4-19.7c42.5 0 78.2 11 103.1 31.9 20.9 17.5 33.1 41.4 35 68.1H572.8l-85.7-51.5c2-0.8 3.4-2.5 3.4-4.5v-10c0-2.8-2.7-5-6-5h-4c-3.3 0-6 2.2-6 5v6.9l-68-40.9h396.6z m-718.5-168h31l71.6 152H85.4l-0.8-152z m1.1 168H292.8l28.9 30.2c-1.3 0.9-2.1 2.3-2.1 3.8v10c0 2.8 2.7 5 6 5h4c3.1 0 5.6-1.9 5.9-4.4l53 55.4H127.6c-24.4-26.7-40-61.6-41.9-100z m222.6 151.6h-62.8c-37.2 0-72.3-12.5-100.7-35.6h258.8l34.2 35.7-129.5-0.1z m299-3.6v3.5H459.8L281 457.2h35.4l292.2 175.7c-0.8 2.4-1.3 5-1.3 7.8z m102 28c0 4.4-3.6 8-8 8h-70c-4.4 0-8-3.6-8-8v-28c0-4.4 3.6-8 8-8h70c4.4 0 8 3.6 8 8v28zM897 644.3l-171.7 0.4v-4c0-13.2-10.8-24-24-24h-70c-4.6 0-8.9 1.3-12.6 3.6l-19.3-11.6h341.1c-4.1 20.2-22.2 35.6-43.5 35.6z" fill="#9A2D2F" />
    </symbol>

    <symbol viewBox="0 0 1024 1024" id="sailboat">
      <path d="M827.1 782l-70.3 23.3c1.6 5.1 2.4 10.5 2.4 16.1 0 7.7-1.6 15-4.5 21.7l68.3 28.6c6.6-15.4 10.3-32.4 10.3-50.3 0-13.8-2.2-27-6.2-39.4z" fill="#FFFFFF" /><path d="M683.9 771.8l-28.6-68.3c-33.9 14.4-60.3 43.1-71.8 78.5l70.3 23.3c4.7-15.1 15.8-27.3 30.1-33.5zM756.9 805.2l70.3-23.3c-12.5-38.7-42.9-69.4-81.5-82.2L722.4 770c16.4 5.5 29.3 18.7 34.5 35.2zM655.8 843l-68.3 28.6c13.1 30.6 37.7 55 68.4 67.9l28.6-68.3c-12.8-5.3-23.1-15.5-28.7-28.2zM721.7 872.8L745 943c35.2-11.5 63.6-37.7 78.1-71.4L754.8 843c-6.2 14.1-18.2 25-33.1 29.8z" fill="#FFACC2" /><path d="M705.3 767.3c6 0 11.7 1 17 2.8l23.3-70.3c-12.7-4.2-26.2-6.5-40.3-6.5-17.8 0-34.7 3.6-50.1 10.2l28.6 68.3c6.6-2.9 13.9-4.5 21.5-4.5zM705.3 875.3c-7.3 0-14.3-1.5-20.7-4.1L656 939.5c15.2 6.3 31.8 9.9 49.3 9.9 13.9 0 27.2-2.2 39.7-6.3l-23.3-70.3c-5.1 1.6-10.7 2.5-16.4 2.5zM651.3 821.3c0-5.6 0.9-11 2.4-16.1L583.5 782c-4 12.4-6.2 25.6-6.2 39.4 0 17.8 3.7 34.8 10.3 50.3l68.3-28.6c-3-6.7-4.6-14.1-4.6-21.8z" fill="#FFFFFF" /><path d="M948.4 702.6c-13.8 0-20.7-9.8-25.7-17-5.1-7.3-7.7-10.2-12.7-10.2s-7.5 3-12.7 10.2c-5.1 7.2-12 17-25.7 17s-20.7-9.8-25.7-17c-5.1-7.3-7.7-10.2-12.7-10.2-5 0-7.5 3-12.7 10.2-5.1 7.2-12 17-25.7 17-13.8 0-20.7-9.8-25.7-17-5.1-7.3-7.7-10.2-12.7-10.2-4.4 0-8-3.6-8-8s3.6-8 8-8c13.8 0 20.7 9.8 25.7 17 5.1 7.3 7.7 10.2 12.7 10.2 5 0 7.5-3 12.7-10.2 5.1-7.2 12-17 25.7-17 13.8 0 20.7 9.8 25.7 17 5.1 7.3 7.7 10.2 12.7 10.2 5 0 7.5-3 12.7-10.2 5.1-7.2 12-17 25.7-17s20.7 9.8 25.7 17c5.1 7.3 7.7 10.2 12.7 10.2 4.4 0 8 3.6 8 8s-3.6 8-8 8zM948.4 652.6c-13.8 0-20.7-9.8-25.7-17-5.1-7.3-7.7-10.2-12.7-10.2s-7.5 3-12.7 10.2c-5.1 7.2-12 17-25.7 17s-20.7-9.8-25.7-17c-5.1-7.3-7.7-10.2-12.7-10.2-5 0-7.5 3-12.7 10.2-5.1 7.2-12 17-25.7 17-13.8 0-20.7-9.8-25.7-17-5.1-7.3-7.7-10.2-12.7-10.2-4.4 0-8-3.6-8-8s3.6-8 8-8c13.8 0 20.7 9.8 25.7 17 5.1 7.3 7.7 10.2 12.7 10.2 5 0 7.5-3 12.7-10.2 5.1-7.2 12-17 25.7-17 13.8 0 20.7 9.8 25.7 17 5.1 7.3 7.7 10.2 12.7 10.2 5 0 7.5-3 12.7-10.2 5.1-7.2 12-17 25.7-17s20.7 9.8 25.7 17c5.1 7.3 7.7 10.2 12.7 10.2 4.4 0 8 3.6 8 8s-3.6 8-8 8zM239.4 280.6c-12.9 0-19.2-10.1-23.8-17.4-4.3-6.9-6.5-9.9-10.2-9.9s-5.9 3-10.2 9.9c-4.6 7.3-10.9 17.4-23.8 17.4s-19.2-10.1-23.8-17.4c-4.3-6.9-6.5-9.9-10.2-9.9s-5.9 3-10.2 9.9c-4.6 7.3-10.9 17.4-23.8 17.4s-19.2-10.1-23.8-17.4c-4.3-6.9-6.5-9.9-10.2-9.9-4.4 0-8-3.6-8-8s3.6-8 8-8c12.9 0 19.2 10.1 23.8 17.4 4.3 6.9 6.5 9.9 10.2 9.9s5.9-3 10.2-9.9c4.6-7.3 10.9-17.4 23.8-17.4s19.2 10.1 23.8 17.4c4.3 6.9 6.5 9.9 10.2 9.9 3.7 0 5.9-3 10.2-9.9 4.6-7.3 10.9-17.4 23.8-17.4s19.2 10.1 23.8 17.4c4.3 6.9 6.5 9.9 10.2 9.9 4.4 0 8 3.6 8 8s-3.6 8-8 8zM261.3 230.6c-13.8 0-20.7-9.8-25.7-17-5.1-7.3-7.7-10.2-12.7-10.2s-7.5 3-12.7 10.2c-5.1 7.2-12 17-25.7 17-13.8 0-20.7-9.8-25.7-17-5.1-7.3-7.7-10.2-12.7-10.2s-7.5 3-12.7 10.2c-5.1 7.2-12 17-25.7 17s-20.7-9.8-25.7-17c-5.1-7.3-7.7-10.2-12.7-10.2-4.4 0-8-3.6-8-8s3.6-8 8-8c13.8 0 20.7 9.8 25.7 17 5.1 7.3 7.7 10.2 12.7 10.2s7.5-3 12.7-10.2c5.1-7.2 12-17 25.7-17s20.7 9.8 25.7 17c5.1 7.3 7.7 10.2 12.7 10.2 5 0 7.5-3 12.7-10.2 5.1-7.2 12-17 25.7-17s20.7 9.8 25.7 17c5.1 7.3 7.7 10.2 12.7 10.2 4.4 0 8 3.6 8 8s-3.6 8-8 8z" fill="#9A2D2F" /><path d="M835.7 951.3H183.1c-44.9 0-81.7-36.8-81.7-81.7v-0.5c0-7.6 6.2-13.8 13.8-13.8h788.4c7.6 0 13.8 6.2 13.8 13.8v0.5c0 45-36.8 81.7-81.7 81.7z" fill="#DAE5FF" /><path d="M511.3 95.4c-65.5 25.8-125.5 62.6-177.6 108.2l177.6 47.6V95.4z" fill="#FFACC2" /><path d="M125.3 662.3c0 43.6 4.6 86 13.3 127h372.7V648L136.1 547.5c-7.1 37.2-10.8 75.5-10.8 114.8z" fill="#FFEB4D" /><path d="M237.7 309.7L511.3 383V251.2l-177.6-47.6c-36 31.4-68.2 67-96 106.1z" fill="#F7D4FF" /><path d="M173.3 424.9l338 90.6V383.7l-274-73.4c-25.3 35.5-46.8 74-64 114.6z" fill="#DAE5FF" /><path d="M173.3 424.9c-16.5 38.9-29.1 80-37.2 122.6L511.3 648V515.5l-338-90.6z" fill="#C0FCD0" /><path d="M502.6 108c-54.7 23-105.4 53.8-151.2 91.8l72.8 19.5c18.2-8.8 69.2-61.9 78.4-111.3zM203.6 666.3c0-17.9-4.9-56.4 1.8-92.3l-61.9-16.6c-6 34.4-9.1 69.6-9.1 104.8 0 40 4 80 11.8 119h26.2c22.4-31.9 31.2-80.9 31.2-114.9zM400.2 229.4l-63.4-17c-31.4 27.8-59.8 58.9-84.7 92.5l58.4 15.6c1.2-18.8 4-35.9 8.9-49.1 11.6-31.1 43.3-28.2 80.8-42zM185.3 419.6l93.7 25.1c6.5-4.7 30.5-17.7 30.5-107.1l-67.9-18.2c-21.9 31.6-40.8 65.2-56.3 100.2zM208.6 558.4c3.2-14.3-4.3-58.7 52.2-102L179 434.5c-14.2 34.6-25.1 70.6-32.6 107.2l62.2 16.7z" fill="#FFFFFF" /><path d="M925.4 868.7v-0.5c0-12-9.8-21.8-21.8-21.8H839c1.5-8.2 2.3-16.5 2.3-25 0-14.3-2.2-28.3-6.6-41.8-13.3-41.1-45.6-73.7-86.6-87.3-13.8-4.6-28.2-6.9-42.8-6.9-18.4 0-36.3 3.6-53.2 10.8-8 3.4-15.5 7.5-22.6 12.3l-109.4-459c-0.1-0.4-0.2-0.8-0.4-1.2V97.6c0-0.9-0.1-1.7-0.4-2.5-0.1-2.6-1.4-4.9-3.5-6.4-2.2-1.5-5-1.8-7.4-0.8-65.9 25.9-126.4 62.8-180 109.6-36.5 31.9-69.2 68-97.2 107.5-0.1 0.1-0.1 0.2-0.2 0.3-0.1 0.1-0.1 0.2-0.2 0.3-25.7 36.3-47.5 75.4-64.8 116.2-16.9 39.8-29.6 81.6-37.7 124.2-7.3 38.1-10.9 77.2-10.9 116.3 0 43.3 4.5 86.6 13.4 128.7 0.8 3.7 4 6.3 7.8 6.3h365.1v49.1H115.2c-12 0-21.8 9.8-21.8 21.8v0.5c0 31.1 15.9 58.6 40.1 74.7H74.3c-4.4 0-8 3.6-8 8s3.6 8 8 8h824c4.4 0 8-3.6 8-8s-3.6-8-8-8h-13c24.2-16.1 40.1-43.6 40.1-74.7z m-100.1-47.4c0 8.5-0.9 16.8-2.6 25h-39.3l-18.5-7.8c1.6-5.6 2.4-11.3 2.4-17.2 0-3.6-0.3-7.3-0.9-10.8l33.4-11.1 21.9-7.3c2.4 9.6 3.6 19.4 3.6 29.2z m-74.7-111.1c30.1 12.3 54.2 36.5 66.2 66.8l-48.5 16-6.8 2.3c-6-13-16.4-23.5-29.3-29.7l18.4-55.4z m0.7 111.1c0 6.4-1.3 12.6-3.9 18.5-1 2.3-2.2 4.5-3.5 6.5h-77.2c-1.4-2.1-2.6-4.3-3.6-6.5-2.6-5.8-3.9-12.1-3.9-18.5 0-4.7 0.7-9.3 2.1-13.7 4-12.8 13.3-23.2 25.7-28.5 5.8-2.5 11.9-3.8 18.3-3.8 4.9 0 9.8 0.8 14.5 2.4 14 4.7 25 15.8 29.4 29.9 1.4 4.4 2.1 9.1 2.1 13.7z m-46-120c10.2 0 20.3 1.3 30.1 3.8l-18.3 55.3c-3.9-0.8-7.8-1.1-11.8-1.1-5.8 0-11.5 0.8-17 2.4L665.8 708c12.7-4.4 25.9-6.7 39.5-6.7z m-76.2 27.3c0.3-0.2 0.5-0.4 0.8-0.6 6.5-5.3 13.6-9.9 21.2-13.7l22.5 53.8c-10.8 6.4-19.3 15.9-24.6 27.2L593.8 777c7.5-19 19.8-35.6 35.3-48.4z m16.6 110l-18.5 7.8h-39.3c-1.7-8.2-2.6-16.5-2.6-25 0-9.9 1.2-19.7 3.6-29.2l44 14.5 11.4 3.8c-0.6 3.6-0.9 7.2-0.9 10.8-0.1 5.9 0.7 11.7 2.3 17.3z m-142.4-57.3H145.1c-7.8-39-11.8-79-11.8-119 0-35.2 3.1-70.4 9.1-104.8l360.9 96.7v127.1z m0-143.7l-357.9-95.9c7.5-36.6 18.4-72.7 32.6-107.2l325.3 87.2v115.9z m0-132.5l-79.6-21.3-239.4-64.2c15.5-35 34.4-68.7 56.3-100.2l262.7 70.4v115.3z m0-132.5L251 304.9c24.9-33.7 53.4-64.7 84.7-92.6l157.4 42.2 10.2 2.7v115.4z m0-131.9l-42.5-11.4-110.4-29.6c46.2-38.4 97.5-69.5 152.8-92.5v133.5z m16.4 76.1l95.9 402.3c-18.3 16-32.1 36.8-39.7 60.4-4.4 13.5-6.6 27.6-6.6 41.8 0 8.5 0.8 16.8 2.3 25h-51.9V316.8z m316 625.6H183.1c-40.6 0-73.7-33.1-73.7-73.7v-0.5c0-3.2 2.6-5.8 5.8-5.8h788.4c3.2 0 5.8 2.6 5.8 5.8v0.5c0 40.6-33.1 73.7-73.7 73.7z" fill="#9A2D2F" /><path d="M349.3 102.3m-32 0a32 32 0 1 0 64 0 32 32 0 1 0-64 0Z" fill="#FFEB4D" /><path d="M349.3 142.3c-22.1 0-40-17.9-40-40s17.9-40 40-40 40 17.9 40 40-17.9 40-40 40z m0-64c-13.2 0-24 10.8-24 24s10.8 24 24 24 24-10.8 24-24-10.8-24-24-24z" fill="#9A2D2F" />
    </symbol>

    <symbol viewBox="0 0 1024 1024" id="passport">
      <path d="M847 202l-66-17 66-18 17-65 18 65 65 18-65 17-18 65-17-65zM111 842l-41-10 41-10 9-41 10 41 41 10-41 10-10 41-9-41z" fill="#FDCD60" /><path d="M910 273l-25-6 25-6 6-25 6 25 25 6-25 6-6 25-6-25zM100 504l-24-5 24-6 6-24 5 24 24 6-24 5-5 24-6-24z" fill="#FDCD60" /><path d="M101 313m-9 0a9 9 0 1 0 18 0 9 9 0 1 0-18 0Z" fill="#5546CB" /><path d="M841 767a25 25 0 1 1 25-25 25 25 0 0 1-25 25z m0-36a10 10 0 1 0 10 10 10 10 0 0 0-10-10z" fill="#5546CB" /><path d="M551 743c-10 0-12 9-12 15s1 8 2 10a11 11 0 0 0 10 6c5 0 12-3 12-15s-1-16-12-16zM349 745c-2-2-4-2-9-2h-4v13h5c5 0 11 0 11-6a6 6 0 0 0-3-5zM512 745c-2-2-4-2-9-2h-4v13h5c5 0 11 0 11-6a6 6 0 0 0-3-5zM607 749a5 5 0 0 0-2-5h-17v11h15a5 5 0 0 0 4-6z" fill="#FF8859" /><path d="M692 171H285a59 59 0 0 0-58 58v625a59 59 0 0 0 58 58h407a59 59 0 0 0 58-58V230a59 59 0 0 0-58-59zM353 762c-3 1-8 2-12 2h-6v17h-9v-45h27c3 1 7 5 7 12s-4 13-7 14z m39 18l-4-10h-18l-4 10h-9l17-45h10l18 45z m42-1a26 26 0 0 1-11 2c-5 0-17 0-18-15h9c0 2 2 9 10 9s9-3 9-6-3-5-11-7-14-4-14-13 3-12 16-12 17 3 17 14h-9c0-2-1-6-8-6s-8 1-8 4 3 4 10 6 16 4 16 15a13 13 0 0 1-9 9z m42 0a26 26 0 0 1-11 2c-5 0-17 0-18-15h9c0 2 2 9 10 9s9-3 9-6-3-5-11-7-14-4-14-13 3-12 16-12 17 3 17 14h-9c0-2-1-6-8-6s-8 1-8 4 3 4 10 6 16 4 16 15a13 13 0 0 1-9 9zM354 419c0-73 60-133 133-133s133 60 133 133-60 133-133 133-133-60-133-133z m162 343c-3 1-8 2-12 2h-6v17h-9v-45h27c3 1 7 5 7 12s-4 13-7 14z m34 19c-17 0-22-13-22-23s8-23 22-23 22 10 22 23-6 23-21 23z m58-1l-6-10c-5-8-6-9-12-9h-2v19h-9v-44h29c5 2 7 7 7 11s-2 9-7 11h-5c4 2 5 4 10 11l5 9z m47-37h-13v37h-9v-36h-13v-8h35z" fill="#FF8859" /><path d="M373 763h12l-6-17-6 17zM600 419a112 112 0 0 0-10-47 114 114 0 0 1 10 47z" fill="#FF8859" /><path d="M692 151H285a79 79 0 0 0-78 78v625a79 79 0 0 0 78 78h407a79 79 0 0 0 78-78V230a79 79 0 0 0-78-79z m58 703a59 59 0 0 1-58 58H285a59 59 0 0 1-58-58V230a59 59 0 0 1 58-58h407a59 59 0 0 1 58 58z" fill="#5546CB" /><path d="M353 737h-27v45h9v-18h6c4 0 9 0 12-2s7-5 7-13-4-10-7-12z m-13 19h-5v-12h4c5 0 7 0 9 2a6 6 0 0 1 2 5c1 5-5 5-10 5zM374 736l-17 45h10l4-10h18l4 10h10l-18-45z m-1 27l6-17 6 17zM424 753c-7-2-10-3-10-6s5-4 8-4 8 4 8 6h9c0-10-8-14-17-14s-16 8-16 12 10 12 14 13 11 3 11 7-2 6-9 6-9-6-10-9h-9c2 15 14 15 18 15a26 26 0 0 0 11-2 13 13 0 0 0 7-12c1-8-8-10-15-12zM466 753c-7-2-10-3-10-6s5-4 8-4 8 4 8 6h9c0-10-8-14-17-14s-16 8-16 12 10 12 14 13 11 3 11 7-2 6-9 6-9-6-10-9h-9c2 15 14 15 18 15a26 26 0 0 0 11-2 13 13 0 0 0 7-12c1-8-8-10-15-12zM516 737h-27v45h9v-18h6c4 0 9 0 12-2s7-5 7-13-4-10-7-12z m-13 19h-5v-12h4c5 0 7 0 9 2a6 6 0 0 1 2 5c1 5-5 5-10 5zM550 735c-14 0-22 9-22 23s5 23 22 23 21-11 21-23-6-23-21-23z m0 38a11 11 0 0 1-10-6c-1-2-2-5-2-10s2-15 12-15 12 10 12 15-7 17-11 17zM604 761h5c4-2 7-6 7-11s-2-9-7-11h-30v45h9v-22h2c6 0 7 1 12 9l6 10h11l-5-9c-4-7-6-9-10-11z m-9-6h-7v-11h16a5 5 0 0 1 2 5 5 5 0 0 1-3 5zM620 744h13v37h9v-37h13v-8h-35v8z" fill="#5546CB" /><path d="M487 532a113 113 0 0 0 84-37H403a113 113 0 0 0 84 37zM470 454h41l11 20h63a112 112 0 0 0 15-55 114 114 0 0 0-10-47 113 113 0 1 0-202 102h73z m67-93l7 5 9-3-3 9 5 7h-9l-5 7-3-9-9-3 7-5z m-11 44l-3 9 5 7h-9l-5 7-3-9-9-3 7-5v-9l7 5z m-46-51l8-17 8 17 18 3-13 13 3 18-16-9-16 9 3-18-13-13z m-47 25l-3 9-5-7h-9l5-7-3-9 9 3 7-5v9l7 5z m16 43l5-7-3-9 9 3 7-5v9l7 5-9 3-3 9-5-7z" fill="#FDCD60" /><path d="M472 387l16-8 17 8-3-18 13-13-19-2-8-17-8 17-18 2 13 13-3 18zM435 361l-8 6-8-3 3 8-6 8h9l6 7 2-9 9-2-7-6v-9zM466 420l9-3-8-5v-10l-7 6-8-3 2 9-5 7h9l5 7 3-8zM539 378l2 9 6-7h9l-6-8 3-8-8 3-8-6v9l-7 6 9 2zM511 412l-8 5 9 3 3 8 5-7h9l-5-7 2-9-8 3-7-6v10z" fill="#F97744" /><path d="M620 419c0-73-60-133-133-133s-133 59-133 133 60 133 133 133 133-60 133-133z m-232 55a113 113 0 1 1 211-56 112 112 0 0 1-15 55h-62l-11-20h-41l-9 20z m98 57a113 113 0 0 1-84-37h169a113 113 0 0 1-84 38z" fill="#5546CB" />
    </symbol>

    <symbol viewBox="0 0 192.218 192.218" id="wedding-couple">
      <g>
        <polygon style="fill-rule:evenodd;clip-rule:evenodd;fill:#C79369;" points="139.868,59.515 150.065,60.765 153.003,44.613
			142.807,43.364 		"/>
        <path style="fill-rule:evenodd;clip-rule:evenodd;fill:#D9ECED;" d="M42.867,16.54c24.19-6.091,51.487,18.689,62.622,55.964
			C95.45,85.526,81.076,95.42,63.821,99.765c-17.254,4.345-34.6,2.437-49.607-4.279C6.369,57.383,18.676,22.631,42.867,16.54z"/>
        <path style="fill-rule:evenodd;clip-rule:evenodd;fill:#E7B791;" d="M75.618,72.693c4.62-1.206,14.358-5.043,17.962-8.06
			l2.035,3.481C92.585,72,82.841,77.31,78.458,79.754L75.618,72.693z"/>
        <path style="fill-rule:evenodd;clip-rule:evenodd;fill:#E7B791;" d="M61.695,68.729c5.153,1.444,11.526,2.63,18.295,3.255
			l-0.798,7.444c-6.294,0.353-11.99,0.216-15.778-0.386C52.816,77.36,50.42,65.568,61.695,68.729z"/>
        <path style="fill-rule:evenodd;clip-rule:evenodd;fill:#E7B791;" d="M91.03,63.271c0.658-1.295,1.477-1.362,2.172-0.606
			c0.722-2.026,2.817-2.923,3.824-2.411c1.959,0.995,2.451,3.96,1.099,6.621c-1.353,2.662-4.036,4.013-5.996,3.018
			C90.17,68.897,89.678,65.933,91.03,63.271z"/>

        <rect x="50.657" y="59.49" transform="matrix(-0.968 0.2509 -0.2509 -0.968 128.1275 119.0598)" style="fill-rule:evenodd;clip-rule:evenodd;fill:#C79369;" width="11.633" height="16.416"/>
        <path style="fill-rule:evenodd;clip-rule:evenodd;fill:#E7B791;" d="M62.296,105.684l-9.273-19.877l-1.808-15.216
			c3.843-0.349,7.594-1.342,11.261-2.918c2.957,0.66,7.304,6.845,8.068,12.755l3.331,22.255L62.296,105.684z"/>
        <path style="fill-rule:evenodd;clip-rule:evenodd;fill:#F5F0F0;" d="M70.589,101.248c24.945,0,45.366,30.695,47.062,69.56
			c-12.914,10.177-29.269,16.262-47.062,16.262c-17.793,0-29.428-8.23-42.341-18.407C29.943,129.798,45.644,101.248,70.589,101.248z
			"/>
        <path style="fill-rule:evenodd;clip-rule:evenodd;fill:#F5F0F0;" d="M53.023,85.807c1.392-0.335,9.265-11.864,15.74-11.179
			c0.869,1.82,1.524,3.825,1.78,5.8l3.298,22.029l0.033,0.226l-11.579,3.001L53.023,85.807z"/>
        <path style="fill-rule:evenodd;clip-rule:evenodd;fill:#E7B791;" d="M62.975,76.206c9.295,8.038,24.634,17.502,39.36,21.626
			l-1.217,4.013c-14.233-2.01-33.279-9.635-41.144-14.983C50.58,80.473,53.599,68.097,62.975,76.206z"/>
        <path style="fill-rule:evenodd;clip-rule:evenodd;fill:#F5F0F0;" d="M74.49,192.218c4.62,0,8.388-1.893,8.388-4.213
			c0-2.319-3.768-4.212-8.388-4.212c-4.619,0-8.387,1.893-8.387,4.212C66.104,190.325,69.871,192.218,74.49,192.218z"/>
        <g>
          <path style="fill-rule:evenodd;clip-rule:evenodd;fill:#323232;" d="M127.086,186.817l-2.566-55.118l-0.018-12.87l-0.013-4.289
				h14.801c-1.082,24.093-2.165,48.184-3.247,72.277C133.057,186.817,130.07,186.817,127.086,186.817z"/>
          <polygon style="fill-rule:evenodd;clip-rule:evenodd;fill:#323232;" points="124.488,114.54 124.694,114.54 124.501,118.831
				124.501,118.829 			"/>
        </g>
        <path style="fill-rule:evenodd;clip-rule:evenodd;fill:#1A1A1A;" d="M126.845,192.218c5.065,0,9.197-2.075,9.197-4.619
			c0-2.544-4.132-4.619-9.197-4.619c-5.065,0-9.196,2.075-9.196,4.619C117.648,190.143,121.779,192.218,126.845,192.218z"/>
        <path style="fill-rule:evenodd;clip-rule:evenodd;fill:#1A1A1A;" d="M123.789,69.206c-5.521-0.494-16.764-4.198-21.469-6.96
			l-1.662,4.376c4.216,3.867,15.746,9.256,21.233,11.213L123.789,69.206z"/>
        <path style="fill-rule:evenodd;clip-rule:evenodd;fill:#1A1A1A;" d="M140.004,63.063c-5.759,2.332-12.958,4.524-20.687,6.12
			l1.882,8.484c7.307-0.406,13.86-1.3,18.152-2.482C151.361,71.875,152.603,57.961,140.004,63.063z"/>
        <path style="fill-rule:evenodd;clip-rule:evenodd;fill:#E7B791;" d="M102.724,60.413c-1.331-1.033-2.224-0.699-2.58,0.44
			c-1.762-1.771-4.405-1.674-5.21-0.639c-1.563,2.016-0.612,5.371,2.126,7.497c2.737,2.125,6.225,2.215,7.789,0.199
			C106.413,65.895,105.462,62.539,102.724,60.413z"/>
        <path style="fill-rule:evenodd;clip-rule:evenodd;fill:#E7B791;" d="M106.323,96.788c1.358,0.72,1.415,1.587,0.602,2.31
			c2.132,0.802,3.042,3.036,2.481,4.093c-1.09,2.055-4.236,2.522-7.028,1.041c-2.793-1.48-4.174-4.347-3.084-6.402
			C100.384,95.773,103.53,95.308,106.323,96.788z"/>
        <polygon style="fill-rule:evenodd;clip-rule:evenodd;fill:#F5F0F0;" points="140.652,53.995 151.24,55.51 150.439,61.107
			138.877,63.977 		"/>
        <polygon style="fill-rule:evenodd;clip-rule:evenodd;fill:#1A1A1A;" points="122.327,112.566 146.868,116.076 146.48,121.085
			121.635,117.531 		"/>
        <polygon style="fill-rule:evenodd;clip-rule:evenodd;fill:#323232;" points="146.611,119.419 150.971,57.662 142.723,58.286
			126.697,87.02 121.859,115.763 		"/>
        <path style="fill-rule:evenodd;clip-rule:evenodd;fill:#F5F0F0;" d="M141.539,55.326c-3.98,18.962-4.857,28.249-14.379,33.752
			l1.149-8.203l10.411-19.682l1.933-7.198L141.539,55.326z"/>
        <path style="fill-rule:evenodd;clip-rule:evenodd;fill:#323232;" d="M141.619,52.967l-1.692,12.369l-0.836,1.848l-8.241,17.327
			l-5.694,9.088l2.931-13.361l10.634-19.044l1.501-6.259c0.229-0.952,0.123-4.76,0.123-4.76L141.619,52.967z"/>
        <path style="fill-rule:evenodd;clip-rule:evenodd;fill:#1A1A1A;" d="M139.443,64.877c-7.162,11.414-20.203,26.266-34.317,35.32
			l2.564,3.816c14.277-6.681,31.795-20.794,38.323-28.929C153.81,65.368,146.668,53.363,139.443,64.877z"/>
        <path style="fill-rule:evenodd;clip-rule:evenodd;fill:#E7B791;" d="M104.561,96.746c-1.381,0.967-1.325,1.918-0.343,2.595
			c-2.212,1.16-2.901,3.714-2.149,4.788c1.462,2.09,4.95,2.173,7.789,0.186c2.84-1.987,3.956-5.292,2.494-7.383
			C110.889,94.842,107.4,94.759,104.561,96.746z"/>
        <g>
          <path style="fill-rule:evenodd;clip-rule:evenodd;fill:#323232;" d="M154.549,185.254l-20.446-51.25l-4.226-12.156l-1.414-4.05
				l13.987-4.839c6.854,23.122,13.708,46.244,20.563,69.367C160.192,183.302,157.37,184.278,154.549,185.254z"/>
          <polygon style="fill-rule:evenodd;clip-rule:evenodd;fill:#323232;" points="128.463,117.798 128.657,117.73 129.878,121.85
				129.877,121.848 			"/>
        </g>

        <ellipse transform="matrix(-0.327 -0.945 0.945 -0.327 29.2796 392.9934)" style="fill-rule:evenodd;clip-rule:evenodd;fill:#1A1A1A;" cx="154.577" cy="186.071" rx="4.619" ry="9.197"/>

        <ellipse transform="matrix(0.3481 -0.9375 0.9375 0.3481 -141.5662 163.8561)" style="fill-rule:evenodd;clip-rule:evenodd;fill:#F5F0F0;" cx="47.03" cy="183.715" rx="4.213" ry="8.387"/>
        <g>

          <ellipse transform="matrix(0.4068 -0.9135 0.9135 0.4068 69.7285 183.6045)" style="fill-rule:evenodd;clip-rule:evenodd;fill:#E7B791;" cx="176.242" cy="38.11" rx="5.78" ry="3.699"/>

          <ellipse transform="matrix(-0.0363 -0.9993 0.9993 -0.0363 102.7389 149.9801)" style="fill-rule:evenodd;clip-rule:evenodd;fill:#E7B791;" cx="123.684" cy="25.454" rx="5.781" ry="3.699"/>

          <ellipse transform="matrix(0.1902 -0.9817 0.9817 0.1902 87.1974 173.969)" style="fill-rule:evenodd;clip-rule:evenodd;fill:#E7B791;" cx="149.051" cy="34.129" rx="20.796" ry="26.979"/>

          <ellipse transform="matrix(0.1902 -0.9817 0.9817 0.1902 84.4548 163.5784)" style="fill-rule:evenodd;clip-rule:evenodd;fill:#323232;" cx="141.381" cy="30.597" rx="2.624" ry="1.499"/>

          <ellipse transform="matrix(0.1902 -0.9817 0.9817 0.1902 94.4271 181.9119)" style="fill-rule:evenodd;clip-rule:evenodd;fill:#323232;" cx="157.484" cy="33.716" rx="2.624" ry="1.499"/>
          <path style="fill-rule:evenodd;clip-rule:evenodd;fill:#5E3A1D;" d="M172.931,19.088c-13.024-3.085-38.182,13.643-50.558,5.591
				c5.658-15.662,24.02-21.512,37.684-16.426C165.101,10.129,169.54,12.703,172.931,19.088z"/>
          <path style="fill-rule:evenodd;clip-rule:evenodd;fill:#5E3A1D;" d="M164.05,11.641c-4.798,10.628,3.711,25.086,12.192,26.469
				C179.388,29.184,173.471,15.208,164.05,11.641z"/>
          <path style="fill-rule:evenodd;clip-rule:evenodd;fill:#C79369;" d="M156.321,43.411c-3.952,0-13.266-1.872-17.482-3.387
				C142.283,46.283,151.661,48.295,156.321,43.411z"/>
          <path style="fill-rule:evenodd;clip-rule:evenodd;fill:#5E3A1D;" d="M172.839,19.56c-17.68-7.8-47.153,10.951-50.322-11.739
				c8.51,5.233,10.184,2.012,19.772-0.934C151.961,3.915,165.3,5.361,172.839,19.56z"/>
          <path style="fill-rule:evenodd;clip-rule:evenodd;fill:#5E3A1D;" d="M174.265,24.602C159.27,12.413,125.893,22.723,128.823,0
				c6.827,7.293,9.292,4.628,19.318,4.316C158.254,4.002,170.739,8.917,174.265,24.602z"/>
        </g>
        <g>

          <ellipse transform="matrix(-0.2652 -0.9642 0.9642 -0.2652 27.4434 86.9165)" style="fill-rule:evenodd;clip-rule:evenodd;fill:#5E3A1D;" cx="46.841" cy="33.001" rx="15.363" ry="15.517"/>

          <ellipse transform="matrix(-0.2652 -0.9642 0.9642 -0.2652 25.4351 91.9061)" style="fill-rule:evenodd;clip-rule:evenodd;fill:#F5F0F0;" cx="47.738" cy="36.261" rx="11.981" ry="17.54"/>

          <ellipse transform="matrix(-0.2652 -0.9642 0.9642 -0.2652 24.7809 93.5307)" style="fill-rule:evenodd;clip-rule:evenodd;fill:#5E3A1D;" cx="48.03" cy="37.323" rx="10.88" ry="19.508"/>

          <ellipse transform="matrix(-0.2652 -0.9642 0.9642 -0.2652 17.5442 110.9603)" style="fill-rule:evenodd;clip-rule:evenodd;fill:#E7B791;" cx="51.053" cy="48.795" rx="19.555" ry="22.062"/>
          <g>

            <ellipse transform="matrix(-0.2652 -0.9642 0.9642 -0.2652 29.2611 114.7157)" style="fill-rule:evenodd;clip-rule:evenodd;fill:#323232;" cx="58.34" cy="46.209" rx="2.467" ry="1.409"/>

            <ellipse transform="matrix(-0.2651 -0.9642 0.9642 -0.2651 6.4928 105.5464)" style="fill-rule:evenodd;clip-rule:evenodd;fill:#323232;" cx="43.469" cy="50.299" rx="2.467" ry="1.41"/>
          </g>
          <path style="fill-rule:evenodd;clip-rule:evenodd;fill:#C79369;" d="M61.565,53.555c-3.531,1.748-12.677,4.195-17.112,4.707
				C50.297,62.329,59.563,59.978,61.565,53.555z"/>

          <ellipse transform="matrix(-0.476 -0.8794 0.8794 -0.476 -4.6912 106.6855)" style="fill-rule:evenodd;clip-rule:evenodd;fill:#E7B791;" cx="29.438" cy="54.74" rx="5.761" ry="3.687"/>

          <ellipse transform="matrix(-0.0408 -0.9992 0.9992 -0.0408 32.4031 117.4178)" style="fill-rule:evenodd;clip-rule:evenodd;fill:#E7B791;" cx="72.564" cy="43.155" rx="5.761" ry="3.687"/>
          <g>
            <path style="fill-rule:evenodd;clip-rule:evenodd;fill:#5E3A1D;" d="M50.418,27.82c11.975,3.284,20.086,17.828,25.788,14.232
					C72.165,29.776,58.548,23.654,50.418,27.82z"/>
            <path style="fill-rule:evenodd;clip-rule:evenodd;fill:#5E3A1D;" d="M62.125,27.505c-17.185,3.736-21.34,29.617-36.561,27.665
					C21.797,36.275,40.678,22.316,62.125,27.505z"/>
          </g>
        </g>
      </g>
    </symbol>

    <symbol viewBox="0 0 55.751 55.751" id="arrow">
      <path d="M31.836,43.006c0.282-0.281,0.518-0.59,0.725-0.912L54.17,20.485c2.107-2.109,2.109-5.528,0-7.638
		c-2.109-2.107-5.527-2.109-7.638,0l-18.608,18.61L9.217,12.753c-2.109-2.108-5.527-2.109-7.637,0
		C0.527,13.809-0.002,15.19,0,16.571c-0.002,1.382,0.527,2.764,1.582,3.816l21.703,21.706c0.207,0.323,0.445,0.631,0.729,0.913
		c1.078,1.078,2.496,1.597,3.91,1.572C29.336,44.604,30.758,44.084,31.836,43.006z"/>
    </symbol>

    <symbol viewBox="0 0 506.4 506.4" id="arrow-circle">
      <circle fill="rgb(251 113 133)" cx="253.2" cy="253.2" r="249.2"/>
      <path fill="#F4EFEF" d="M253.6,303.6L253.6,303.6l97.2-97.2c3.6-3.6,9.6-3.6,13.2,0l9.2,9.2c3.6,3.6,3.6,9.6,0,13.2L260,342
	c-2,2-4.4,2.8-6.8,2.8c-2.4,0-4.8-0.8-6.8-2.8L133.2,228.8c-3.6-3.6-3.6-9.6,0-13.2l9.2-9.2c3.6-3.6,9.6-3.6,13.2,0L253.6,303.6z"/>
      <path d="M253.2,348.8c-3.6,0-6.8-1.2-9.6-4L130.4,231.6c-5.2-5.2-5.2-13.6,0-19.2l9.2-9.2c2.4-2.4,6-4,9.6-4l0,0
	c3.6,0,6.8,1.2,9.6,4l94.4,94.4l94.4-94.4c2.4-2.4,6-4,9.6-4l0,0c3.6,0,6.8,1.2,9.6,4l9.2,9.2c2.4,2.4,4,6,4,9.6s-1.2,6.8-4,9.6
	L262.8,344.8C260.4,347.2,257.2,348.8,253.2,348.8C253.6,348.8,253.6,348.8,253.2,348.8z M149.6,207.6c-1.6,0-2.8,0.4-4,1.6
	l-9.2,9.2c-2,2-2,5.6,0,7.6l113.2,113.2c1.2,1.2,2.4,1.6,4,1.6s2.8-0.4,4-1.6L370.8,226c1.2-1.2,1.6-2.4,1.6-4s-0.4-2.8-1.6-4
	l-9.2-9.2c-1.2-1.2-2.4-1.6-4-1.6l0,0c-1.6,0-2.8,0.4-4,1.6L256.4,306c-1.6,1.6-4,1.6-5.6,0l-97.6-96.8
	C152.4,208,150.8,207.6,149.6,207.6L149.6,207.6z"/>
      <path d="M253.2,506.4C113.6,506.4,0,392.8,0,253.2S113.6,0,253.2,0s253.2,113.6,253.2,253.2S392.8,506.4,253.2,506.4z M253.2,8
	C118,8,8,118,8,253.2s110,245.2,245.2,245.2s245.2-110,245.2-245.2S388.4,8,253.2,8z"/>
    </symbol>

    <symbol viewBox="0 0 421.885 421.885" id="wedding-cake">
      <g>
        <path style="fill:#3CBCC6;" d="M387.893,322.448h-28.888V221.742c0-4.142-3.357-7.5-7.5-7.5h-37.068v-78.163
			c0-4.142-3.357-7.5-7.5-7.5h-39.211V70.894c0-4.142-3.357-7.5-7.5-7.5h-25.115c5.102-4.491,9.221-9.201,12.3-14.108
			c7.484-11.931,7.126-22.003,5.508-28.351C249.776,8.608,239.236,0,227.287,0c-5.991,0-11.646,2.228-16.349,6.308
			C206.237,2.228,200.584,0,194.594,0c-11.944,0-22.482,8.608-25.624,20.933c-1.619,6.349-1.979,16.421,5.502,28.351
			c3.077,4.908,7.195,9.619,12.296,14.11h-25.108c-4.143,0-7.5,3.358-7.5,7.5v57.686h-39.211c-4.143,0-7.5,3.358-7.5,7.5v78.163
			H70.38c-4.143,0-7.5,3.358-7.5,7.5v100.706H33.992c-4.143,0-7.5,3.357-7.5,7.5c0,4.142,3.357,7.5,7.5,7.5h67.179
			c12.992,18.596,49.129,28.293,82.147,31.465v11.582l-37.056,27.9c-2.577,1.94-3.625,5.311-2.602,8.369
			c1.023,3.059,3.888,5.121,7.113,5.121h120.34c3.226,0,6.09-2.063,7.113-5.121c1.022-3.059-0.025-6.43-2.603-8.371l-37.058-27.898
			v-11.582c33.018-3.172,69.156-12.869,82.148-31.465h67.179c4.143,0,7.5-3.358,7.5-7.5
			C395.393,325.805,392.035,322.448,387.893,322.448z M169.159,78.394h83.566v10.918h-83.566V78.394z M220.697,156.27
			c-4.102,6.154-6.134,8.66-9.758,8.66c-3.626,0-5.657-2.506-9.76-8.66c-2.848-4.272-6.402-9.571-11.935-12.691h43.387
			C227.099,146.7,223.544,151.999,220.697,156.27z M252.726,128.579h-83.566v-24.268h83.566V128.579z M122.449,161.311
			c0.689,0.954,1.43,2.037,2.258,3.279c4.315,6.474,10.226,15.34,22.238,15.34c12.013,0,17.923-8.866,22.238-15.34
			c0.721-1.08,1.374-2.042,1.986-2.904c1.86-2.616,3.318-4.252,4.922-5.082c0.875-0.453,1.794-0.674,2.85-0.674
			c3.624,0,5.655,2.507,9.758,8.66c4.315,6.474,10.226,15.34,22.24,15.34c12.013,0,17.923-8.866,22.238-15.34
			c0.287-0.43,0.561-0.837,0.828-1.232c1.552-2.287,2.807-3.985,4.006-5.179c1.556-1.549,3.021-2.249,4.924-2.249
			c3.626,0,5.657,2.507,9.76,8.66c4.316,6.474,10.227,15.34,22.242,15.34c12.014,0,17.925-8.866,22.24-15.34
			c0.828-1.242,1.57-2.33,2.26-3.284v52.936H122.449V161.311z M338.893,229.242c-7.196,2.803-12.037,7.731-16.185,11.98
			c-5.52,5.653-9.507,9.738-18.062,9.738c-8.555,0-12.542-4.085-18.062-9.738c-4.144-4.244-8.976-9.169-16.152-11.98H338.893z
			 M284.697,156.27c-4.103,6.154-6.134,8.66-9.76,8.66c-3.627,0-5.658-2.506-9.762-8.661c-2.849-4.271-6.403-9.57-11.936-12.69
			h43.427C291.116,146.691,287.548,151.992,284.697,156.27z M168.637,143.579c-5.532,3.121-9.087,8.42-11.934,12.691
			c-4.103,6.154-6.134,8.66-9.758,8.66c-3.624,0-5.655-2.506-9.758-8.66c-2.849-4.272-6.402-9.574-11.939-12.691H168.637z
			 M151.44,229.242c-7.176,2.811-12.008,7.736-16.15,11.98c-5.519,5.653-9.506,9.738-18.059,9.738s-12.539-4.085-18.058-9.738
			c-4.148-4.25-8.995-9.177-16.195-11.98H151.44z M192.876,241.223c-4.143-4.244-8.975-9.169-16.15-11.98h68.42
			c-7.176,2.811-12.008,7.736-16.15,11.98c-5.518,5.653-9.506,9.738-18.059,9.738c-3.295,0-5.909-0.61-8.197-1.679
			c-2.449-1.145-4.526-2.817-6.649-4.845C195.047,243.442,193.993,242.367,192.876,241.223z M183.504,24.64
			c1.425-5.586,6.089-9.64,11.09-9.64c3.807,0,7.239,2.347,9.928,6.785c1.358,2.244,3.791,3.614,6.414,3.615h0.001
			c2.623,0,5.055-1.37,6.414-3.613c2.69-4.44,6.127-6.787,9.937-6.787c5.005,0,9.672,4.055,11.096,9.64
			c2.347,9.205-3.78,23.713-27.445,37.636C187.283,48.354,181.157,33.844,183.504,24.64z M231.145,354.485
			c-0.026,0-0.053-0.004-0.079-0.004c-4.142,0-7.5,3.357-7.5,7.5v22.254c0,2.355,1.107,4.576,2.989,5.992l22.126,16.658h-75.478
			l22.125-16.658c1.883-1.418,2.989-3.637,2.989-5.992v-22.254c0-4.143-3.357-7.5-7.5-7.5c-0.026,0-0.052,0.004-0.078,0.004
			c-30.747-2.211-53.932-9.186-67.092-17.037h174.598C285.085,345.299,261.894,352.274,231.145,354.485z M344.005,322.448H77.88
			v-79.101c3.996,1.652,6.956,4.662,10.559,8.354c6.201,6.354,13.92,14.261,28.792,14.261c14.873,0,22.591-7.908,28.793-14.261
			c5.519-5.654,9.506-9.739,18.059-9.739c8.554,0,12.541,4.085,18.06,9.739c6.202,6.354,13.921,14.261,28.794,14.261
			c14.873,0,22.592-7.908,28.794-14.261c5.519-5.654,9.506-9.739,18.059-9.739c8.556,0,12.543,4.085,18.063,9.739
			c6.202,6.354,13.921,14.261,28.795,14.261s22.593-7.908,28.795-14.261c3.605-3.692,6.564-6.709,10.564-8.359V322.448z"/>
        <path style="fill:#FFBBD2;" d="M123.648,337.448c13.16,7.851,36.345,14.826,67.092,17.037c0.026,0,0.052-0.004,0.078-0.004
			c4.143,0,7.5,3.357,7.5,7.5v22.254c0,2.355-1.106,4.574-2.989,5.992l-22.125,16.658h75.478l-22.126-16.658
			c-1.883-1.416-2.989-3.637-2.989-5.992v-22.254c0-4.143,3.358-7.5,7.5-7.5c0.026,0,0.053,0.004,0.079,0.004
			c30.749-2.211,53.94-9.186,67.101-17.037H123.648z"/>
        <path style="fill:#FFBBD2;" d="M286.585,241.223c5.52,5.653,9.507,9.738,18.062,9.738c8.555,0,12.542-4.085,18.062-9.738
			c4.147-4.249,8.988-9.178,16.185-11.98h-68.46C277.61,232.054,282.442,236.979,286.585,241.223z"/>
        <path style="fill:#FFBBD2;" d="M99.173,241.223c5.519,5.653,9.505,9.738,18.058,9.738s12.54-4.085,18.059-9.738
			c4.143-4.244,8.975-9.169,16.15-11.98H82.978C90.178,232.046,95.025,236.973,99.173,241.223z"/>
        <path style="fill:#FFBBD2;" d="M202.739,249.282c2.288,1.068,4.902,1.679,8.197,1.679c8.554,0,12.541-4.085,18.059-9.738
			c4.143-4.244,8.975-9.169,16.15-11.98h-68.42c7.176,2.811,12.008,7.736,16.15,11.98c1.117,1.145,2.171,2.22,3.213,3.215
			c0.139,0.097,0.279,0.194,0.416,0.291C198.82,246.377,200.857,247.906,202.739,249.282z"/>
        <path style="fill:#FFBBD2;" d="M265.175,156.27c4.104,6.155,6.135,8.661,9.762,8.661c3.626,0,5.657-2.506,9.76-8.66
			c2.852-4.278,6.419-9.579,11.97-12.691H253.24C258.772,146.699,262.326,151.998,265.175,156.27z"/>
        <path style="fill:#FFBBD2;" d="M176.091,156.605c-1.604,0.83-3.061,2.466-4.922,5.082c1.407-1.429,2.795-2.882,4.191-4.339
			C175.603,157.096,175.846,156.849,176.091,156.605z"/>
        <path style="fill:#FFBBD2;" d="M137.187,156.27c4.103,6.154,6.134,8.66,9.758,8.66c3.624,0,5.655-2.506,9.758-8.66
			c2.848-4.271,6.402-9.57,11.934-12.691h-43.39C130.784,146.696,134.338,151.998,137.187,156.27z"/>
        <path style="fill:#FFBBD2;" d="M234.005,163.358c1.307-1.82,2.611-3.613,4.006-5.179
			C236.812,159.373,235.557,161.071,234.005,163.358z"/>
        <path style="fill:#FFBBD2;" d="M201.179,156.27c4.103,6.154,6.134,8.66,9.76,8.66c3.624,0,5.655-2.506,9.758-8.66
			c2.848-4.271,6.402-9.57,11.935-12.691h-43.387C194.777,146.699,198.331,151.998,201.179,156.27z"/>
        <rect x="169.159" y="78.394" style="fill:#FFBBD2;" width="83.566" height="10.918"/>
      </g>
    </symbol>

    <symbol viewBox="0 0 334.332 334.332" id="wedding-location">
      <g>
        <path style="fill:#FFBBD2;" d="M167.167,15C104.714,15,53.905,65.811,53.905,128.266c0,25.648,20.354,67.061,58.857,119.758
			c22.053,30.184,44.344,56.139,54.404,67.551c10.061-11.412,32.352-37.367,54.404-67.551
			c38.504-52.697,58.855-94.109,58.855-119.758C280.427,65.811,229.62,15,167.167,15z M230.233,165.197
			c-11.779,17.752-31.842,34.014-59.631,48.332c-1.078,0.557-2.258,0.834-3.436,0.834c-1.18,0-2.357-0.277-3.436-0.834
			c-27.791-14.32-47.855-30.582-59.635-48.334c-13.094-19.73-12.805-36.396-10.258-46.9c4.902-20.219,22.826-34.893,42.619-34.893
			c11.635,0,22.266,4.881,30.709,13.934c8.441-9.053,19.072-13.934,30.707-13.934c19.791,0,37.713,14.674,42.615,34.893
			C243.038,128.801,243.325,145.465,230.233,165.197z"/>
        <path style="fill:#3CBCC6;" d="M197.874,83.402c-11.635,0-22.266,4.881-30.707,13.934c-8.443-9.053-19.074-13.934-30.709-13.934
			c-19.793,0-37.717,14.674-42.619,34.893c-2.547,10.504-2.836,27.17,10.258,46.9c11.779,17.752,31.844,34.014,59.635,48.334
			c1.078,0.557,2.256,0.834,3.436,0.834c1.178,0,2.357-0.277,3.436-0.834c27.789-14.318,47.852-30.58,59.631-48.332
			c13.092-19.732,12.805-36.396,10.256-46.902C235.587,98.076,217.665,83.402,197.874,83.402z M108.417,121.83
			c3.291-13.574,15.084-23.428,28.041-23.428c9.467,0,18.127,5.402,24.387,15.213c1.377,2.158,3.762,3.465,6.322,3.465
			c2.561,0,4.945-1.307,6.322-3.465c6.26-9.811,14.918-15.213,24.385-15.213c12.955,0,24.746,9.854,28.039,23.428
			c6.092,25.125-15.816,53.58-58.746,76.561C124.235,175.408,102.323,146.953,108.417,121.83z"/>
        <path style="fill:#3CBCC6;" d="M167.167,0C96.444,0,38.905,57.539,38.905,128.266c0,68.816,117.721,198.158,122.731,203.631
			c1.422,1.551,3.428,2.436,5.531,2.436c2.104,0,4.111-0.885,5.531-2.436c5.012-5.473,122.729-134.814,122.729-203.631
			C295.427,57.539,237.89,0,167.167,0z M280.427,128.266c0,25.648-20.352,67.061-58.855,119.758
			c-22.053,30.184-44.344,56.139-54.404,67.551c-10.061-11.412-32.352-37.367-54.404-67.551
			c-38.504-52.697-58.857-94.109-58.857-119.758C53.905,65.811,104.714,15,167.167,15C229.62,15,280.427,65.811,280.427,128.266z"/>
      </g>
    </symbol>

    <symbol viewBox="0 -0.5 1025 1025" id="ticket">
      <path d="M0.999024 0.999024h1023.000976v1023.000976H0.999024z" fill="#FFFFFF" />
      <path d="M826.193171 193.810732l-41.959025-11.988293 41.959025-10.989268 11.988292-42.958049 10.989269 42.958049 42.958048 10.989268-42.958048 11.988293-10.989269 41.959024-11.988292-41.959024zM152.850732 844.17561l-32.967805-7.992195 32.967805-6.993171 6.99317-32.967805 7.992196 32.967805 31.96878 6.993171-31.96878 7.992195-7.992196 31.96878-6.99317-31.96878z" fill="#FDCD60" />
      <path d="M865.155122 246.759024l-14.985366-3.996097 14.985366-2.997073 2.997073-14.985366 2.997073 14.985366 14.985366 2.997073-14.985366 3.996097-2.997073 13.986342-2.997073-13.986342zM126.876098 477.533659l-14.985366-2.997074 14.985366-3.996097 2.997073-13.986342 3.996097 13.986342 13.986342 3.996097-13.986342 2.997074-3.996097 14.985365-2.997073-14.985365z" fill="#FDCD60" />
      <path d="M189.814634 327.68m-8.991219 0a8.99122 8.99122 0 1 0 17.982439 0 8.99122 8.99122 0 1 0-17.982439 0Z" fill="#5546CB" />
      <path d="M743.274146 796.222439a24.97561 24.97561 0 1 1 24.97561-24.97561 24.97561 24.97561 0 0 1-24.97561 24.97561z m0-35.964878a9.990244 9.990244 0 1 0 9.990244 9.990244 9.990244 9.990244 0 0 0-9.990244-8.99122z" fill="#5546CB" />
      <path d="M647.367805 108.893659c-16.983415-16.983415-46.954146-14.985366-66.934634 4.995121l-64.936586 64.936586c-4.995122 4.995122-8.99122 13.986341-11.988292 26.973658l21.978536 21.978537-15.98439 15.98439-25.974634-25.974634a22.977561 22.977561 0 0 0-12.987317 5.994146L112.889756 582.43122c-19.980488 19.980488-21.978537 49.95122-4.995122 67.933658l263.742439 263.742439c6.993171 6.993171 17.982439 10.989268 28.971707 10.989268s27.972683-5.994146 37.962927-16.983414l349.658537-349.658537c5.994146-5.994146 8.99122-13.986341 10.989268-26.973658l-19.980488-19.980488 15.984391-15.98439 18.981463 18.981463c17.982439-5.994146 28.971707-11.988293 35.964878-18.981463l55.945366-55.945366c19.980488-19.980488 21.978537-49.95122 4.995122-67.933659z m103.898536 199.804878l-24.975609 24.975609-13.986342-13.986341 24.97561-24.97561z m-54.946341-54.946342l-24.97561 24.97561-13.986341-13.986342 24.97561-24.975609z m-40.96-40.96l13.986341 13.986342-24.975609 24.975609-13.986342-13.986341z m-54.946341-54.946341l13.986341 13.986341-24.97561 24.97561-13.986341-13.986342z m-20.979513 337.670244c-8.99122 11.988293-20.979512 25.974634-36.963902 40.96s-39.960976 37.962927-48.952195 45.955122l29.970731 102.899512-49.951219 32.967805-45.955122-73.927805-37.962927 27.972683-14.985366 41.959024h-26.973658l-11.988293-38.961951-38.961951-13.986342v-24.975609l56.94439-14.985366 25.974634-26.973659-76.924878-61.939512 36.963903-37.962927 101.900487 36.963903c8.99122-8.99122 27.972683-28.971707 49.95122-47.953171s32.967805-25.974634 46.954146-33.966829 33.966829-12.987317 45.955122-8.99122 10.989268 7.992195 11.988293 14.985366-3.996098 22.977561-16.983415 39.960976z m3.996098-177.826342l-28.971707-28.971707 15.98439-15.98439 28.971707 28.971707z m19.980488-105.896585l24.975609-24.97561 13.986342 13.986341-24.97561 24.97561z m54.946341 180.823414l-28.971707-28.971707 15.98439-15.98439 28.971707 28.971707z m26.973659-98.903414l24.975609-24.97561 13.986342 13.986341-24.97561 24.97561z m47.95317 172.831219l-28.971707-28.971707 15.98439-15.98439 28.971708 28.971707z m6.993171-118.883902l24.97561-24.97561 13.986341 13.986342-24.975609 24.975609z m26.973659 26.973658l24.975609-24.975609 13.986342 13.986341-24.97561 24.97561z m40.96 40.96l-13.986342-13.986341 24.97561-24.97561 13.986341 13.986342z m25.974634 28.971708l-13.986342-13.986342 24.97561-24.97561 13.986342 13.986342z" fill="#FBCE49" />
      <path d="M925.096585 358.649756L661.354146 94.907317c-24.97561-24.97561-67.933659-22.977561-95.906341 4.995122l-64.936585 64.936585c-6.993171 6.993171-12.987317 17.982439-16.983415 32.967805-11.988293 0.999024-20.979512 4.995122-28.971707 11.988293L98.903415 568.444878c-27.972683 27.972683-29.970732 70.930732-4.995122 95.906342l262.743414 263.742439c10.989268 10.989268 26.973659 16.983415 42.958049 16.983414s37.962927-7.992195 51.949268-21.978536l350.657561-350.657561c8.99122-8.99122 13.986341-20.979512 16.983415-38.961952 21.978537-6.993171 35.964878-14.985366 44.956098-23.976585l55.945365-55.945366c26.973659-26.973659 29.970732-69.931707 4.995122-94.907317z m-18.981463 81.92l-55.945366 55.945366c-6.993171 6.993171-17.982439 12.987317-35.964878 18.981463l-18.981463-18.981463-15.984391 15.98439 19.980488 19.980488c-1.998049 11.988293-4.995122 20.979512-10.989268 26.973659L438.571707 909.112195c-10.989268 9.990244-23.976585 16.983415-37.962927 16.983415s-21.978537-3.996098-28.971707-10.989269L107.894634 649.365854c-16.983415-16.983415-14.985366-47.953171 4.995122-67.933659l357.650732-357.650732a22.977561 22.977561 0 0 1 12.987317-5.994146l25.974634 25.974634 15.98439-15.98439-21.978536-21.978537c2.997073-12.987317 6.993171-21.978537 11.988292-26.973658l64.936586-64.936586c19.980488-19.980488 49.95122-21.978537 66.934634-4.995121l263.742439 263.742439c16.983415 16.983415 14.985366 47.953171-4.995122 67.933658z" fill="#5546CB" />
      <path d="M704.312195 437.572683l28.971707 28.971707 15.984391-16.983414-28.971708-27.972683-15.98439 15.98439zM554.458537 288.718049l28.971707 28.971707 15.98439-15.98439-27.972683-28.971707-16.983414 15.98439zM629.385366 363.644878l28.971707 27.972683 15.98439-15.98439-28.971707-28.971708-15.98439 16.983415z" fill="#5546CB" />
      <path d="M575.438049 459.55122c-3.996098-1.998049-21.978537-3.996098-71.929756 38.961951a689.326829 689.326829 0 0 0-52.948293 50.950244l-4.995122 4.995122-100.901463-36.963903-12.987317 12.987317 76.924878 61.939512-45.955122 46.954147-41.959025 10.989268 30.969756 10.989268 9.990244 32.967805 11.988293-32.967805 59.941463-44.956097 45.955122 74.926829 19.980488-13.986341-28.971707-101.900488 4.995122-3.996098s27.972683-22.977561 53.947317-49.951219c44.956098-44.956098 45.955122-58.942439 45.955122-61.939512z" fill="#F97744" />
      <path d="M583.430244 441.56878c-11.988293-4.995122-25.974634-1.998049-45.955122 8.99122s-28.971707 18.981463-46.954146 33.966829-41.959024 38.961951-49.95122 47.953171l-100.901463-37.962927-36.963903 37.962927 76.924878 61.939512-25.974634 26.973659-56.94439 14.985366v26.973658l38.961951 13.986342 11.988293 38.961951h27.972683l14.985366-41.959025 37.962926-27.972683 45.955122 73.927805 49.95122-32.967805-30.969756-104.89756c8.99122-7.992195 29.970732-25.974634 48.952195-45.955122s27.972683-29.970732 36.963902-40.96 17.982439-28.971707 15.984391-38.961952-4.995122-11.988293-11.988293-14.985366z m-53.947317 79.921952c-25.974634 25.974634-53.947317 48.952195-53.947317 49.951219l-4.995122 3.996098 29.970732 101.900488-19.980488 13.986341-45.955122-74.926829-59.941464 44.956097-11.988292 32.967805-9.990244-32.967805-30.969756-10.989268 41.959024-10.989268 45.955122-46.954147-76.924878-61.939512 12.987317-12.987317 101.900488 36.963903 4.995122-4.995122a689.326829 689.326829 0 0 1 52.948292-50.950244c49.95122-42.958049 66.934634-40.96 71.929757-38.961951-0.999024 2.997073-2.997073 17.982439-47.953171 61.939512z" fill="#5546CB" />
      <path d="M575.646845 184.612714l25.431165-25.431165 14.128203 14.129202-25.431165 25.430166zM603.510634 210.880062l25.430166-25.431164 14.129202 14.129202-25.431165 25.430165zM630.667114 238.852745l25.431165-25.431165 14.128203 14.129202-25.430166 25.430166zM657.531879 266.532714l25.431165-25.431165 14.128203 14.129202-25.431165 25.430166zM684.689358 293.506373l25.431165-25.431165 14.128203 14.129202-25.431165 25.430166zM712.553147 319.773721l25.431165-25.431165 14.128203 14.129202-25.431165 25.430166zM739.710626 347.746404l25.431165-25.431165 14.128203 14.129202-25.431165 25.430166zM766.575391 375.426373l25.430166-25.431165 14.129202 14.129202-25.431165 25.430166zM794.438181 401.693721l25.431165-25.431165 14.128203 14.129202-25.430166 25.430166zM819.597612 431.49362l25.431165-25.431165 14.128203 14.128203-25.431165 25.431164z" fill="#FFFFFF" />
    </symbol>

    <symbol viewBox="0 0 1024 1024" id="map">
      <path d="M786 279l-48-13 48-13 13-48 13 48 49 13-49 13-13 49-13-49zM834 332l-19-4 19-5 4-19 5 19 19 5-19 4-5 19-4-19z" fill="#FDCD60" />
      <path d="M159 715l-21-5 21-5 5-21 5 21 21 5-21 5-5 21-5-21z" fill="#FDCD60" />
      <path d="M244 247m-9 0a9 9 0 1 0 18 0 9 9 0 1 0-18 0Z" fill="#5546CB" />
      <path d="M288 821l-27-6 27-7 6-27 7 27 27 7-27 6-7 27-6-27z" fill="#FDCD60" />
      <path d="M832 828a25 25 0 1 1 25-25 25 25 0 0 1-25 25z m0-36a10 10 0 1 0 10 10 10 10 0 0 0-10-10z" fill="#5546CB" />
      <path d="M627 502l-10-17 11-7V287l-22 14a95 95 0 0 1 3 24c0 28-19 64-58 108 21 7 34 19 34 34s-31 40-71 40-71-17-71-40 13-27 34-34l-25-30-40 26v180h2l11-7 11 17-17 10h-7v112l216-102V501z m-135 83l-16 10-8 5-8 5h-1l-5-9-5-8 9-5 24-15 10 17z m56-35l-33 20-10-17 33-20 10 17z m56-35l-33 20-10-17 17-10 16-10 10 17zM188 640l204 99V427L188 296z m162-74l32 22-11 16-32-22z m-57-31l4-5 8 6 23 16-11 16-15-11-8-6-8-6z m-42-45a29 29 0 1 1-29 29 29 29 0 0 1 30-29zM648 477l12 6-9 18-3-2v141l217 95V428L648 285z m176 68a29 29 0 1 1-29 29 29 29 0 0 1 29-29z m-72-15l36 19-9 18-36-18z m-69-23l5-10 9 4 9 4 18 9-9 18-27-14-9-4z" fill="#FDCD60" />
      <path d="M640 256l-41 27a95 95 0 0 0-181 43c0 17 7 38 22 61l-37 24-235-151v392l236 115 233-110 248 108V417z m-202 69a75 75 0 0 1 151 0c0 33-40 81-75 118-62-63-76-99-76-118z m97 124c18 4 29 12 29 18s-20 20-51 20-51-12-51-20 11-14 29-18l15 15 7 7 7-7zM392 739l-204-99V296l204 131z m20 2V630h7l17-10-11-17-11 7h-2V429l40-26 25 30c-21 7-34 19-34 34s31 40 71 40 71-17 71-40-13-27-34-34c39-44 58-80 58-108a95 95 0 0 0-3-24l22-14v190l-11 7 10 17h1v138z m453-6l-217-95V499l3 2 9-18-12-6V285l217 143z" fill="#5546CB" />
      <path d="M286 546l8 5 8 6 15 11 12-17-24-16-8-6-4 5-7 12zM371 604l11-16-32-22-11 16 32 22zM481 568l-24 15-9 5 1 1h-1l5 8 5 9v-1l1 1 8-5 9-5h-1l17-11-11-17zM537 534l-33 20 11 17 33-20-10-17h-1zM594 499l-16 10-17 10 10 17 33-20-10-17zM679 515l9 4 27 14 9-17v-1l-18-9-9-4-9-5-5 10-4 8zM779 566l9-18-36-18-9 17v1l36 18z" fill="#5546CB" />
      <path d="M824 585a11 11 0 1 0-11-11 11 11 0 0 0 11 11z" fill="#F97744" />
      <path d="M824 603a29 29 0 1 0-29-29 29 29 0 0 0 29 29z m0-40a11 11 0 1 1-11 11 11 11 0 0 1 11-11z" fill="#5546CB" />
      <path d="M252 530a11 11 0 1 0-11-11 11 11 0 0 0 11 11z" fill="#FFFFFF" />
      <path d="M252 548a29 29 0 1 0-29-29 29 29 0 0 0 29 29z m0-40a11 11 0 1 1-11 11 11 11 0 0 1 11-11z" fill="#5546CB" /><path d="M507 465l-15-15c-18 4-29 12-29 18s20 20 51 20 51-12 51-20-11-14-29-18l-15 15-7 7z" fill="#AFBCF3" /><path d="M514 444c36-37 75-85 75-118a75 75 0 0 0-151 0c0 18 14 54 76 118z m-35-117a35 35 0 1 1 35 35 35 35 0 0 1-35-35z" fill="#F97744" /><path d="M514 327m-35 0a35 35 0 1 0 70 0 35 35 0 1 0-70 0Z" fill="#FFFFFF" />
    </symbol>

    <symbol viewBox="0 0 512 512" id="jamaica">
      <path style="fill:#73AF00;" d="M473.655,423.724H38.345C17.167,423.724,0,406.557,0,385.379V126.621
	c0-21.177,17.167-38.345,38.345-38.345h435.31c21.177,0,38.345,17.167,38.345,38.345V385.38
	C512,406.557,494.833,423.724,473.655,423.724z"/>
      <path style="fill:#FFE15A;" d="M511.47,391.713L304.329,256L511.47,120.287c-3.021-18.162-18.796-32.011-37.815-32.011h-9.984
	L256,224.337L48.329,88.276h-9.984c-19.019,0-34.795,13.849-37.815,32.011L207.671,256L0.53,391.713
	c3.02,18.162,18.796,32.011,37.815,32.011h9.984L256,287.663l207.671,136.061h9.984C492.674,423.724,508.449,409.875,511.47,391.713
	z"/>
      <g>
        <polygon style="fill:#464655;" points="512,119.939 512,392.061 304.329,256 	"/>
        <polygon style="fill:#464655;" points="0,392.061 0,119.939 207.671,256 	"/>
      </g>
    </symbol>

    <symbol viewBox="0 0 1024 1024" id="wallet">
      <path d="M264.1 239.7c-13.8 0-20.7-9.8-25.7-17-5.1-7.3-7.7-10.2-12.7-10.2s-7.5 3-12.7 10.2c-5.1 7.2-12 17-25.7 17s-20.7-9.8-25.7-17c-5.1-7.3-7.7-10.2-12.7-10.2-5 0-7.5 3-12.7 10.2-5.1 7.2-12 17-25.7 17-13.8 0-20.7-9.8-25.7-17-5.1-7.3-7.7-10.2-12.7-10.2-4.4 0-8-3.6-8-8s3.6-8 8-8c13.8 0 20.7 9.8 25.7 17 5.1 7.3 7.7 10.2 12.7 10.2 5 0 7.5-3 12.7-10.2 5.1-7.2 12-17 25.7-17 13.8 0 20.7 9.8 25.7 17 5.1 7.3 7.7 10.2 12.7 10.2 5 0 7.5-3 12.7-10.2 5.1-7.2 12-17 25.7-17 13.8 0 20.7 9.8 25.7 17 5.1 7.3 7.7 10.2 12.7 10.2 4.4 0 8 3.6 8 8s-3.6 8-8 8zM264.1 289.7c-13.8 0-20.7-9.8-25.7-17-5.1-7.3-7.7-10.2-12.7-10.2s-7.5 3-12.7 10.2c-5.1 7.2-12 17-25.7 17s-20.7-9.8-25.7-17c-5.1-7.3-7.7-10.2-12.7-10.2-5 0-7.5 3-12.7 10.2-5.1 7.2-12 17-25.7 17-13.8 0-20.7-9.8-25.7-17-5.1-7.3-7.7-10.2-12.7-10.2-4.4 0-8-3.6-8-8s3.6-8 8-8c13.8 0 20.7 9.8 25.7 17 5.1 7.3 7.7 10.2 12.7 10.2 5 0 7.5-3 12.7-10.2 5.1-7.2 12-17 25.7-17 13.8 0 20.7 9.8 25.7 17 5.1 7.3 7.7 10.2 12.7 10.2 5 0 7.5-3 12.7-10.2 5.1-7.2 12-17 25.7-17 13.8 0 20.7 9.8 25.7 17 5.1 7.3 7.7 10.2 12.7 10.2 4.4 0 8 3.6 8 8s-3.6 8-8 8z" fill="#9A2D2F" />
      <path d="M349.1 104.1m-32 0a32 32 0 1 0 64 0 32 32 0 1 0-64 0Z" fill="#FFEB4D" />
      <path d="M349.1 144.1c-22.1 0-40-17.9-40-40s17.9-40 40-40 40 17.9 40 40-18 40-40 40z m0-64c-13.2 0-24 10.8-24 24s10.8 24 24 24 24-10.8 24-24-10.8-24-24-24z" fill="#9A2D2F" />
      <path d="M798.7 501.1h-598c-17.7 0-32-14.3-32-32s14.3-32 32-32h598v64z" fill="#FFE0B6" />
      <path d="M718.7 471.1h-470v-148c0-8.8 7.2-16 16-16h438c8.8 0 16 7.2 16 16v148z" fill="#FFEB4D" />
      <path d="M248.7 405.1h470v32h-470z" fill="#FFFFFF" />
      <path d="M848.7 501.1h-648c-17.7 0-32-14.3-32-32v388c0 35.3 28.7 64 64 64h552c35.3 0 64-28.7 64-64v-356z" fill="#FFACC2" />
      <path d="M421.4 634.5l-15.1 14.7c-6.9-7.1-13.7-10.6-20.4-10.6-4 0-7.2 1.1-9.6 3.2-2.5 2.1-3.7 4.5-3.7 7.3 0 2.3 1.1 4.7 3.3 7 2.1 2.3 6.5 4.8 13 7.5 11.6 4.8 19.5 8.9 23.8 12.3 4.3 3.4 7.6 7.4 9.8 12.2 2.3 4.7 3.4 10.1 3.4 15.9 0 5.9-1.2 11.3-3.7 16.3-2.4 5-5.6 9-9.5 11.9-3.9 2.9-9.4 5.1-16.6 6.6v20.9h-14.7v-20.4c-6.8-0.8-12.6-2.5-17.4-5.2-6.6-3.6-12.7-8.5-18.3-14.5l14.8-15.2c9.5 10.2 18.8 15.2 27.7 15.2 4.5 0 8.4-1.6 11.7-4.7 3.3-3.2 4.9-6.9 4.9-11.1 0-3.6-1-6.7-3.1-9.5-2.1-2.7-6.2-5.5-12.3-8.3-12.4-5.7-20.8-10.3-25.2-13.6s-7.6-7.1-9.8-11.3c-2.2-4.2-3.2-8.7-3.2-13.4 0-7.9 2.9-14.6 8.6-20.2 5.7-5.6 13-8.6 21.7-9v-7.8H396v8.8c5.1 1.2 9.3 2.8 12.9 4.8s7.7 5.4 12.5 10.2z" fill="#9A2D2F" />
      <path d="M848.7 756.1h-154c-35.3 0-64-28.7-64-64s28.7-64 64-64h154v128z" fill="#DAE5FF" />
      <path d="M693.7 724.1c-17.6 0-32-14.4-32-32s14.4-32 32-32 32 14.4 32 32-14.4 32-32 32z" fill="#FFFFFF" />
      <path d="M693.7 732.1c-22.1 0-40-17.9-40-40s17.9-40 40-40 40 17.9 40 40-18 40-40 40z m0-64c-13.2 0-24 10.8-24 24s10.8 24 24 24 24-10.8 24-24-10.8-24-24-24z" fill="#9A2D2F" />
      <path d="M951.4 734.9c-5 0-7.5-3-12.7-10.2-5.1-7.2-12-17-25.7-17s-20.7 9.8-25.7 17c-5.1 7.3-7.7 10.2-12.7 10.2-5 0-7.5-3-12.7-10.2-1.5-2.2-3.2-4.6-5.2-6.9v-24.3c4.3 4.1 10 7.4 17.9 7.4 13.8 0 20.7-9.8 25.7-17 5.1-7.3 7.7-10.2 12.7-10.2s7.5 3 12.7 10.2c5.1 7.2 12 17 25.7 17 4.4 0 8-3.6 8-8s-3.6-8-8-8c-5 0-7.5-3-12.7-10.2-5.1-7.2-12-17-25.7-17s-20.7 9.8-25.7 17c-5.1 7.3-7.7 10.2-12.7 10.2-5 0-7.5-3-12.7-10.2-1.5-2.2-3.2-4.6-5.2-6.9V501.1c0-4.4-3.6-8-8-8h-42v-56c0-4.4-3.6-8-8-8h-72v-106c0-13.2-10.8-24-24-24h-438c-13.2 0-24 10.8-24 24v106h-40c-22.1 0-40 17.9-40 40v388c0 22.6 10.5 42.8 26.8 56H99.7c-4.4 0-8 3.6-8 8s3.6 8 8 8h824c4.4 0 8-3.6 8-8s-3.6-8-8-8h-93.8c16.3-13.2 26.8-33.4 26.8-56V743.5c4.3 4.1 10 7.4 17.9 7.4 13.8 0 20.7-9.8 25.7-17 5.1-7.3 7.7-10.2 12.7-10.2s7.5 3 12.7 10.2c5.1 7.2 12 17 25.7 17 4.4 0 8-3.6 8-8s-3.6-8-8-8z m-110.7 13.2h-146c-30.9 0-56-25.1-56-56s25.1-56 56-56h146v112z m-584-425c0-4.4 3.6-8 8-8h438c4.4 0 8 3.6 8 8v74h-454v-74z m0 90h454v16h-454v-16z m0 32h454v18h-454v-18z m-56 0h40v26c0 4.4 3.6 8 8 8h470c4.4 0 8-3.6 8-8v-26h64v48h-590c-13.2 0-24-10.8-24-24s10.7-24 24-24z m584.1 468H232.5c-30.8-0.1-55.9-25.2-55.9-56V501h0.1c0.1 0 0.1 0.1 0.2 0.1 0.4 0.3 0.8 0.6 1.3 0.9 0.2 0.1 0.3 0.2 0.5 0.3 0.3 0.2 0.7 0.5 1 0.7 0.2 0.1 0.4 0.2 0.5 0.3 0.4 0.2 0.7 0.4 1.1 0.6 0.2 0.1 0.3 0.2 0.5 0.3 0.5 0.3 1 0.5 1.4 0.7 0.1 0 0.1 0.1 0.2 0.1 0.5 0.3 1.1 0.5 1.6 0.7 0.2 0.1 0.3 0.1 0.5 0.2 0.4 0.2 0.8 0.3 1.2 0.5 0.2 0.1 0.4 0.1 0.6 0.2 0.4 0.1 0.8 0.3 1.1 0.4 0.2 0.1 0.4 0.1 0.6 0.2 0.4 0.1 0.9 0.3 1.3 0.4 0.2 0 0.3 0.1 0.5 0.1 0.6 0.1 1.2 0.3 1.8 0.4 0.1 0 0.3 0 0.4 0.1 0.5 0.1 0.9 0.2 1.4 0.3 0.2 0 0.4 0.1 0.6 0.1 0.4 0.1 0.8 0.1 1.2 0.2 0.2 0 0.4 0 0.7 0.1 0.4 0 0.9 0.1 1.3 0.1h642.5v111h-146c-39.7 0-72 32.3-72 72s32.3 72 72 72h146v93c0 30.9-25.1 56-55.9 56.1z" fill="#9A2D2F" />
      <path d="M726.7 467.2c32 0.5 58.5-14.1 64-16.5V445h-64v22.2zM240.7 454.1v-9h-40c-11.9 0-21.8 8.7-23.7 20.1 17.7 5.9 31.8-5.6 63.7-11.1z" fill="#FFFFFF" />
    </symbol>
  </defs>
</svg>